<?xml version="1.0" encoding="UTF-8" standalone="no"?>
<svg
   width="1014.0528pt"
   height="560.80865pt"
   viewBox="0 0 1014.0528 560.80865"
   version="1.1"
   id="svg77"
   sodipodi:docname="castel-logo-white.svg"
   inkscape:version="1.1 (c68e22c387, 2021-05-23)"
   xmlns:inkscape="http://www.inkscape.org/namespaces/inkscape"
   xmlns:sodipodi="http://sodipodi.sourceforge.net/DTD/sodipodi-0.dtd"
   xmlns="http://www.w3.org/2000/svg"
   xmlns:svg="http://www.w3.org/2000/svg">
  <defs
     id="defs81" />
  <sodipodi:namedview
     id="namedview79"
     pagecolor="#000000"
     bordercolor="#666666"
     borderopacity="1.0"
     inkscape:pageshadow="2"
     inkscape:pageopacity="0"
     inkscape:pagecheckerboard="false"
     inkscape:document-units="pt"
     showgrid="false"
     inkscape:zoom="0.56295782"
     inkscape:cx="590.6304"
     inkscape:cy="425.43152"
     inkscape:window-width="1920"
     inkscape:window-height="1017"
     inkscape:window-x="1912"
     inkscape:window-y="-8"
     inkscape:window-maximized="1"
     inkscape:current-layer="#a2a4a6ff" />
  <g
     id="#005aa1ff"
     transform="translate(-9.9472165)"
     style="fill:#ffffff">
    <path
       fill="#005aa1"
       opacity="1"
       d="m 496.59,0 h 36.43 c 3.64,0.72 7.34,1.06 11.04,1.34 80.46,6.24 158.66,37.52 221.55,88.04 62.08,49.45 109.35,117.31 133.86,192.83 9.08,27.8 15.25,56.58 18.04,85.7 -37.18,-4 -74.18,-12.02 -108.66,-26.74 -10.95,-4.9 -21.8,-10.33 -31.3,-17.73 -4.13,-3.49 -9.01,-7.56 -9.1,-13.44 -0.28,-11.67 0.33,-23.34 0.18,-35 0.12,-16 -0.44,-32.02 0.6,-48 -0.06,-24.69 0.18,-49.4 0.1,-74.09 0.2,-4.67 -4.07,-7.39 -7.18,-10.08 -14.82,-12.46 -30.74,-23.54 -46.96,-34.07 -2.07,-1.14 -4.58,-3.1 -6.92,-1.48 -17.07,8.96 -33.17,19.62 -49.86,29.25 -0.24,13.51 -0.11,27.02 -0.05,40.53 -0.19,1.76 0.17,3.82 -0.95,5.32 -1.56,0.6 -3.19,0.9 -4.81,1.19 -46.98,7.68 -94.05,15.03 -141.35,20.47 -10.25,0.48 -20.54,2.3 -30.78,0.76 0.02,-4.27 0.01,-8.53 -0.06,-12.79 -9.47,-6.39 -19.05,-12.6 -28.5,-19.01 -9.89,7.68 -19.16,16.13 -28.93,23.97 -2.39,2.12 -5.69,4.29 -5.39,7.94 -0.08,28.2 0.07,56.41 -0.06,84.61 -30.39,7.67 -61.41,12.43 -92.44,16.63 -13.88,1.87 -27.79,3.52 -41.76,4.6 -39.65,4.1 -79.46,6.79 -119.29,8.11 -11.31,1.12 -22.7,0.3 -34.03,1.09 -6.66,0.49 -13.33,0.3 -19.99,0.37 0.99,-6.47 2.87,-12.76 4.51,-19.09 18.98,-71.1 58.05,-136.64 111.24,-187.45 C 271.67,69.67 328,36.46 388.9,17.93 423.78,7.09 460.13,1.41 496.59,0 Z"
       id="path9"
       style="fill:#ffffff" />
    <path
       fill="#005aa1"
       opacity="1"
       d="m 532.32,390.28 c 2.45,0.02 4.91,-0.16 7.35,0.18 2.88,1.86 5.53,4.66 9.3,4.24 39.69,0.09 79.38,0.04 119.07,0.02 3.76,0.38 6.52,-2.34 9.43,-4.2 2.45,-0.45 4.97,-0.19 7.46,-0.22 1.5,16.38 2.76,32.8 4.52,49.14 -3.36,0.03 -6.72,0.03 -10.08,0.06 -1.88,-8.34 -2.61,-17.26 -7.12,-24.72 -2.73,-4.5 -8.34,-5.77 -13.22,-6.1 -11.26,-0.48 -22.54,-0.2 -33.8,-0.23 0.03,40.21 -0.03,80.41 0.02,120.62 0.16,5.06 0.96,10.99 5.34,14.23 6.22,4.29 14.08,3.22 21.21,3.39 0.08,3.49 0.06,6.99 0.06,10.48 -28.82,0.03 -57.65,0.04 -86.47,-0.01 0.01,-3.49 0.01,-6.99 0.05,-10.48 7.2,-0.28 15.53,1.35 21.48,-3.79 4.85,-4.54 5.07,-11.71 4.89,-17.9 -0.03,-38.84 -0.02,-77.69 -0.01,-116.53 -11.27,0 -22.56,-0.23 -33.82,0.2 -5.43,0.26 -11.55,2.14 -14.04,7.43 -3.62,7.26 -4.57,15.49 -5.99,23.38 -3.31,0 -6.61,-0.01 -9.91,-0.02 1.01,-16.42 2.78,-32.79 4.28,-49.17 z"
       id="path11"
       style="fill:#ffffff" />
    <path
       fill="#005aa1"
       opacity="1"
       d="m 47.19,407.18 c 19.17,-12.92 43.16,-18.5 66.07,-15.61 10.24,1.28 20.04,4.71 29.58,8.49 2.44,0.84 5.22,2.28 7.63,0.54 2.6,-1.73 5.74,-1.43 8.72,-1.33 -0.02,15.19 1.44,30.32 1.58,45.51 -3.11,-0.01 -6.23,0 -9.34,-0.06 -3.89,-12.82 -10.9,-25.29 -22.23,-32.9 -11.09,-7.57 -25.42,-8.93 -38.28,-5.99 -16.19,3.48 -29.89,15.37 -36.91,30.19 -5.98,11.71 -7.9,24.97 -8.24,37.98 0.44,10.43 1.69,20.97 5.43,30.78 5.05,13.81 13.95,26.55 26.47,34.52 13.79,9.13 32.13,11.06 47.47,4.88 14.77,-6.06 25.34,-19.33 31.26,-33.81 3.26,0 6.53,0.01 9.8,0.04 -2.37,16.28 -7.18,32.16 -13.3,47.41 -7.01,-1.81 -14.34,-1.93 -21.5,-1.19 -10.77,1.61 -21.44,4.38 -32.41,4.13 -19.24,0.65 -38.64,-5.23 -54.34,-16.37 -14.11,-10.2 -25.1,-24.75 -30.56,-41.33 -5.36,-16.64 -5.56,-34.89 -0.36,-51.6 5.7,-18 17.81,-33.77 33.46,-44.28 z"
       id="path13"
       style="fill:#ffffff" />
    <path
       fill="#005aa1"
       opacity="1"
       d="m 252.49,390.86 c 11.18,-0.07 22.36,-0.14 33.53,0 1.54,-0.27 2.49,0.83 2.89,2.19 15.63,43.41 31.45,86.75 47.06,130.17 2.55,6.56 5.06,13.56 10.34,18.48 3.57,3.41 8.62,4.57 13.39,5.05 0.46,3.45 0.62,6.92 0.57,10.41 -26.21,0.06 -52.42,0.05 -78.62,0 0,-3.51 -0.02,-7.02 0.25,-10.51 6.63,-0.32 14.17,1.41 19.93,-2.78 3.71,-3.3 2.91,-8.9 1.61,-13.16 -3.87,-11.28 -8.34,-22.35 -12.36,-33.58 -17.03,-0.11 -34.07,-0.08 -51.09,-0.03 -1.62,-0.32 -1.67,1.86 -2.26,2.84 -3.42,10.3 -6.93,20.57 -10.09,30.95 -0.82,3.15 -1.92,6.66 -0.48,9.8 0.96,2.31 3.2,3.75 5.52,4.47 5.76,1.88 11.9,1.4 17.87,1.55 0.03,3.48 0.03,6.96 0.05,10.45 -21.3,0.03 -42.59,0.12 -63.88,-0.05 -0.01,-3.46 -0.02,-6.93 0.38,-10.36 5.25,0.01 10.96,0.06 15.3,-3.37 5.66,-4.53 8.4,-11.57 10.81,-18.18 12.95,-39.12 25.79,-78.28 38.73,-117.4 0.94,-2.95 2.27,-5.81 2.73,-8.88 -0.08,-2.81 -1.46,-5.38 -2.18,-8.06 m 1.28,60.88 c -3.49,10.2 -6.94,20.42 -10.08,30.73 13.85,0.08 27.69,0.06 41.54,0.02 -6.81,-20.27 -14.6,-40.19 -21.54,-60.41 -3.53,9.81 -6.81,19.71 -9.92,29.66 z"
       id="path15"
       style="fill:#ffffff" />
    <path
       fill="#005aa1"
       opacity="1"
       d="m 411.72,396.77 c 10.78,-5.45 23.28,-6.94 35.18,-5.44 8.66,0.83 16.95,3.52 25.26,5.91 2.38,0.98 4.65,-0.24 6.65,-1.48 1.82,-1.22 4.1,-0.96 6.19,-1.14 1.35,14.2 3.11,28.36 4.57,42.56 -3.25,0.05 -6.48,0.05 -9.72,0.06 -2.91,-10.16 -7.98,-20 -16.34,-26.73 -9.66,-7.91 -23.85,-10.77 -35.4,-5.47 -6.21,2.69 -11.24,8.94 -10.7,15.97 0.14,7.92 5.79,14.32 11.93,18.68 13.2,9.4 28.3,15.85 41.13,25.82 10.32,8 20.26,17.62 24.61,30.26 4.16,12.27 3.5,26.3 -2.49,37.87 -8.44,17.14 -27.67,27.77 -46.59,27.12 -13.51,0.4 -26.29,-4.52 -39.12,-8.02 -3.16,-1.08 -4.93,2.42 -7.29,3.78 -1.93,0.22 -3.87,0.08 -5.79,0.05 -1.11,-15.99 -4.29,-31.77 -5.59,-47.74 3.15,-0.09 6.31,-0.09 9.46,0.23 3.62,11.24 8.67,22.59 17.81,30.43 9.66,8.69 24.59,11.22 36.4,5.62 4.66,-2.13 8.51,-5.83 11.16,-10.19 4.95,-8.64 4.02,-20 -1.93,-27.93 -6.32,-8.6 -15.88,-13.91 -24.9,-19.23 -13.04,-7.48 -26.94,-14.48 -36.83,-26.14 -9.98,-11.5 -12.72,-28.47 -7.61,-42.71 3.43,-9.63 10.9,-17.54 19.95,-22.14 z"
       id="path17"
       style="fill:#ffffff" />
    <path
       fill="#005aa1"
       opacity="1"
       d="m 712.64,394.76 c 44.2,-0.03 88.4,-0.03 132.6,0 0.38,12.69 1.44,25.33 2.2,37.99 -3.19,-0.02 -6.36,-0.03 -9.53,-0.11 -0.7,-6.34 -1.5,-13.03 -5.05,-18.5 -2.32,-3.55 -6.76,-4.84 -10.79,-4.78 -17.58,-0.03 -35.15,0.02 -52.72,-0.02 -0.01,19.46 0.02,38.91 -0.01,58.36 13.57,-0.02 27.14,0.1 40.71,-0.06 4.6,0.09 9.62,-1.24 12.54,-5.04 2.9,-3.79 3.03,-8.78 3.44,-13.33 3.22,-0.02 6.45,-0.02 9.68,-0.02 -0.06,17.34 0.06,34.68 -0.07,52.02 -3.16,-0.02 -6.31,0 -9.46,0.03 -0.63,-4.73 -0.25,-10.12 -3.52,-13.99 -3.05,-3.74 -8.21,-4.39 -12.71,-4.74 -13.53,-0.44 -27.06,-0.11 -40.59,-0.22 0,16.57 -0.01,33.15 0,49.72 0.05,3.11 0.12,6.72 2.61,9 1.9,1.66 4.59,1.49 6.96,1.55 13.71,-0.06 27.42,0.01 41.14,-0.04 5.95,-0.01 12.39,-1.4 16.62,-5.89 5.24,-5.54 7.13,-13.23 8.84,-20.44 3.04,-0.06 6.09,-0.07 9.14,-0.04 -0.42,13.68 -1.95,27.29 -2.53,40.96 -48.22,0.02 -96.44,0.07 -144.66,-0.02 0,-3.48 -0.01,-6.96 0.01,-10.44 7.21,-0.4 15.02,1.17 21.68,-2.38 5.3,-3.02 6.67,-9.64 6.63,-15.27 0.01,-35.36 0.02,-70.71 0,-106.07 0.01,-5.2 -0.73,-11.27 -5.29,-14.55 -5.19,-3.68 -11.83,-2.96 -17.83,-3.2 -0.07,-3.5 -0.06,-6.99 -0.04,-10.48 z"
       id="path19"
       style="fill:#ffffff" />
    <path
       fill="#005aa1"
       opacity="1"
       d="m 878.37,394.77 c 27.12,-0.05 54.25,-0.04 81.37,0 -0.02,3.49 -0.03,6.98 -0.07,10.48 -5.99,0.26 -12.57,-0.85 -17.91,2.51 -4.8,2.93 -6.58,8.86 -6.51,14.2 -0.03,36.37 0.03,72.74 -0.03,109.11 0.07,3.17 0.07,6.85 2.52,9.24 2.48,2.21 6.04,2.23 9.19,2.31 10.38,-0.04 20.76,-0.01 31.15,-0.01 5.51,0.07 11.15,-1.54 15.43,-5.12 8.59,-7.06 13.84,-17.1 20.77,-25.6 3.19,-0.62 6.47,-0.31 9.72,-0.38 v 0.89 c -6.03,14.68 -11.25,29.71 -17.37,44.34 -6.48,1 -13.1,0.21 -19.63,0.45 -36.39,0 -72.79,0.02 -109.18,-0.01 0,-3.49 0,-6.98 0.02,-10.47 6.23,-0.07 13.13,0.46 18.5,-3.34 4.49,-3.24 5.32,-9.25 5.44,-14.39 0,-35.36 0.02,-70.71 -0.01,-106.06 -0.01,-5.58 -1.57,-11.96 -6.62,-15.09 -4.98,-3.19 -11.13,-2.34 -16.73,-2.66 -0.04,-3.47 -0.05,-6.94 -0.05,-10.4 z"
       id="path21"
       style="fill:#ffffff" />
  </g>
  <g
     id="#a2a4a6ff"
     transform="translate(-9.9472165)">
    <path
       fill="#a2a4a6"
       opacity="1"
       d="m 708.27,107.28 c 2.34,-1.62 4.85,0.34 6.92,1.48 16.22,10.53 32.14,21.61 46.96,34.07 3.11,2.69 7.38,5.41 7.18,10.08 0.08,24.69 -0.16,49.4 -0.1,74.09 -1.04,15.98 -0.48,32 -0.6,48 0.15,11.66 -0.46,23.33 -0.18,35 0.09,5.88 4.97,9.95 9.1,13.44 9.5,7.4 20.35,12.83 31.3,17.73 34.48,14.72 71.48,22.74 108.66,26.74 15.92,2.01 31.98,1.52 47.96,2.42 9.84,0.3 19.7,0.05 29.53,0.57 8.61,0.58 17.25,0.53 25.87,0.61 -0.32,1.19 -0.64,2.39 -0.94,3.59 -43.04,0.64 -86.15,-0.23 -129.03,-4.3 -19.65,-1.91 -39.15,-5.2 -58.46,-9.3 -18.77,-4.48 -37.48,-10.12 -54.47,-19.43 -9.76,-5.42 -19.16,-12.39 -24.91,-22.16 -4.02,-6.59 -2.48,-14.6 -2.65,-21.91 0.14,-50.84 0.57,-101.67 0.25,-152.51 -13.58,-7.98 -26.58,-16.91 -39.98,-25.18 -11.73,6.86 -23.61,13.43 -35.62,19.79 -0.85,12.29 -0.36,24.62 -1.17,36.91 -0.3,5.19 -0.39,10.38 -0.37,15.58 -19.58,0.96 -39.15,2.29 -58.65,4.38 -25.29,2.8 -50.28,7.67 -75.41,11.52 -22.4,3.4 -45.38,4.18 -67.76,0.26 -0.21,-3.86 -0.2,-7.77 -1,-11.57 -0.42,-2.2 -2.52,-3.41 -4.12,-4.72 -4.9,-3.49 -9.87,-6.88 -14.71,-10.46 -7.27,5.96 -14.41,12.14 -20.98,18.87 -2.76,2.62 -2.26,6.67 -2.35,10.12 0.32,27.31 -0.27,54.62 0.03,81.92 -7.36,3.91 -15.4,6.26 -23.47,8.15 -14.75,3.46 -29.65,6.33 -44.65,8.44 -35.59,5.2 -71.4,8.74 -107.29,11.1 -49.33,3.73 -98.76,5.98 -148.2,7.26 -15.63,1.07 -31.33,0.34 -46.97,1.29 -19.33,0.21 -38.66,0.65 -57.99,0.69 v -1.46 c 0.94,-2.62 1.99,-5.2 3,-7.79 35.67,-0.21 71.35,0.52 107.02,-0.27 6.66,-0.07 13.33,0.12 19.99,-0.37 11.33,-0.79 22.72,0.03 34.03,-1.09 39.83,-1.32 79.64,-4.01 119.29,-8.11 13.97,-1.08 27.88,-2.73 41.76,-4.6 31.03,-4.2 62.05,-8.96 92.44,-16.63 0.13,-28.2 -0.02,-56.41 0.06,-84.61 -0.3,-3.65 3,-5.82 5.39,-7.94 9.77,-7.84 19.04,-16.29 28.93,-23.97 9.45,6.41 19.03,12.62 28.5,19.01 0.07,4.26 0.08,8.52 0.06,12.79 10.24,1.54 20.53,-0.28 30.78,-0.76 47.3,-5.44 94.37,-12.79 141.35,-20.47 1.62,-0.29 3.25,-0.59 4.81,-1.19 1.12,-1.5 0.76,-3.56 0.95,-5.32 -0.06,-13.51 -0.19,-27.02 0.05,-40.53 16.69,-9.63 32.79,-20.29 49.86,-29.25 z"
       id="path24"
       style="fill:#ffffff;stroke:#ffffff;stroke-opacity:1" />
  </g>
</svg>
