<?xml version="1.0" encoding="utf-8"?>
<!-- Generator: Adobe Illustrator 23.0.3, SVG Export Plug-In . SVG Version: 6.00 Build 0)  -->
<svg version="1.0" id="Calque_1" xmlns="http://www.w3.org/2000/svg" xmlns:xlink="http://www.w3.org/1999/xlink" x="0px" y="0px"
	 viewBox="0 0 274.128 150.025" enable-background="new 0 0 274.128 150.025" xml:space="preserve">
<g id="Calque_2">
</g>
<g>
	<path fill="#005EA0" d="M29.424,85.771c57.298-0.959,82.432-8.305,82.432-8.305v-23.5l9.081-7.625l7.657,5.086c0,0,0,0.684,0,3.113
		c0,2.429,47.673-5.649,47.673-5.649s0-1.585,0-12.245c9.973-6.073,8.193-5.021,13.936-8.221
		c10.478,6.463,15.67,11.525,15.67,11.525l-0.18,43.546h0.081c0.087,3.656,16.237,12.609,39.619,14.946l0.208-0.023
		C239.988,43.14,193.301,0,136.539,0C84.059,0,40.181,36.516,29.424,85.771z"/>
	<path fill="#A7A8A9" d="M272.901,100.393c-1.81-0.01-3.842-0.026-6.143-0.05c-57.77,0.339-65.686-13.183-65.871-17.132l4.805,0.284
		l0.18-43.546c0,0-5.192-5.062-15.67-11.525c-5.742,3.2-3.963,2.147-13.936,8.221c0,10.659,0,12.245,0,12.245
		s-47.673,8.079-47.673,5.649c0-2.429,0-3.113,0-3.113l-7.657-5.086l-9.081,7.625v23.5c0,0-30.982,9.055-102.562,8.371
		c-2.943-0.028-5.77-0.049-8.502-0.061L0,88.269c102.795-1.225,114.66-9.891,114.66-9.891l0.045-24.047
		c2.493-2.6,6.232-5.713,6.232-5.713l5.163,3.708c0,0,0,2.593,0.357,3.581c17.807,2.429,23.505-3.189,53.773-4.403
		c0.417-11.028,0.354-10.629,0.44-14.064c3.789-2.027,4.222-2.161,9.531-5.306c4.828,2.927,6.149,3.985,10.861,6.844
		c0,20.888-0.091,32.885-0.176,44.235c0,0,4.805,0.284,4.886,0.284c0.099,4.134,20.723,15.034,49.115,15.499
		c3.8,0.055,10.215,0.24,18.356,0.492L272.901,100.393z"/>
	<g>
		<path fill="#005EA0" d="M44.472,136.561c-0.513,3.696-2.053,9.069-3.594,12.697c-1.027-0.349-2.311-0.488-3.787-0.488
			c-3.017,0-6.225,1.256-11.039,1.256c-13.158,0-23.364-9.907-23.364-22.535c0-12.837,10.848-22.884,24.583-22.884
			c6.675,0,11.04,2.861,12.323,2.861c0.514,0,0.899-0.209,1.284-0.697h1.605l0.578,12.209h-2.503
			c-2.054-6.908-6.611-10.814-12.773-10.814c-9.179,0-15.533,7.535-15.533,18.559c0,11.232,7.061,19.883,16.239,19.883
			c5.905,0,10.783-3.698,13.415-10.046H44.472z"/>
		<path fill="#005EA0" d="M63.871,132.933l-2.696,8.162c-1.155,3.559-1.091,5.233,5.071,5.233h0.834v2.72H50.071v-2.72h0.963
			c3.081,0,4.686-1.535,6.291-6.419l10.976-33.278l-0.706-2.024h9.499l12.836,35.442c1.669,4.604,3.082,6,6.419,6.279v2.72h-20.86
			v-2.72h2.247c3.915,0,4.492-1.885,3.209-5.304l-3.017-8.092H63.871z M70.547,112.771l-5.392,16.324h11.296L70.547,112.771z"/>
		<path fill="#005EA0" d="M103.923,136.211h2.503c2.118,6.907,5.904,10.465,10.975,10.465c4.237,0,7.446-2.93,7.446-6.837
			c0-10.395-20.603-10.046-20.603-23.859c0-6.698,5.391-11.373,13.029-11.373c4.942,0,8.793,1.815,9.755,1.815
			c0.449,0,0.836-0.139,1.412-0.768h1.349l1.22,11.303h-2.568c-1.412-5.65-5.519-9.349-10.462-9.349c-3.594,0-6.29,2.093-6.29,4.814
			c0,6.418,10.655,7.604,17.844,15.419c2.633,2.86,3.659,5.859,3.659,9.209c0,7.256-6.034,12.977-13.672,12.977
			c-5.135,0-9.82-2.232-10.976-2.232c-0.578,0-1.027,0.348-1.348,1.116h-1.669L103.923,136.211z"/>
		<path fill="#005EA0" d="M167.339,141.095c0,3.628,1.027,5.233,5.585,5.233h1.54v2.72h-23.107v-2.72h2.183
			c3.529,0,4.941-1.535,4.941-5.233v-31.813h-7.574c-4.941,0-5.711,0.837-6.932,8.232h-2.631l1.154-13.046h2.055
			c0.514,0.488,0.835,0.838,1.22,0.977c0.449,0.14,0.962,0.209,1.86,0.209h30.553c1.732,0,2.055-0.139,3.082-1.186h2.054
			l1.155,13.046h-2.632c-1.219-7.325-1.99-8.232-6.932-8.232h-7.574V141.095z"/>
		<path fill="#005EA0" d="M219.956,109.49h-14.057v15.698h10.398c3.529,0,4.814-1.326,4.814-5.023h2.566v13.883h-2.566
			c0-3.767-0.836-5.022-5.778-5.022h-9.435v12.558c0,3.001,0.513,3.628,2.375,3.628h10.719c4.173,0,6.161-1.256,7.381-7.116h2.439
			l-0.77,10.953h-38.64v-2.72h2.63c3.725,0,5.007-1.605,5.007-5.023v-27.837c0-3.768-1.155-5.093-5.583-5.093h-0.643v-2.722h35.367
			l0.642,10.117h-2.438C223.742,111.026,222.909,109.49,219.956,109.49z"/>
		<path fill="#005EA0" d="M269.443,149.048H235.04v-2.72h1.091c4.109,0,5.326-1.605,5.326-5.023v-27.907
			c0-4.116-2.182-5.022-5.069-5.022h-1.22v-2.722h21.759v2.722h-1.86c-3.338,0-4.751,1.604-4.751,4.884v28.743
			c0,2.582,0.706,3.209,3.209,3.209h8.153c4.3,0,5.583-2.303,9.883-8.303h2.567L269.443,149.048z"/>
	</g>
</g>
</svg>
