<?xml version="1.0" encoding="utf-8"?>
<!-- Generator: Adobe Illustrator 18.0.0, SVG Export Plug-In . SVG Version: 6.00 Build 0)  -->
<!DOCTYPE svg PUBLIC "-//W3C//DTD SVG 1.1//EN" "http://www.w3.org/Graphics/SVG/1.1/DTD/svg11.dtd">
<svg version="1.1" id="Calque_1" xmlns="http://www.w3.org/2000/svg" xmlns:xlink="http://www.w3.org/1999/xlink" x="0px" y="0px"
	 viewBox="0 0 283.5 283.5" enable-background="new 0 0 283.5 283.5" xml:space="preserve">
<g>
	<path fill="#FFFFFF" d="M56.1,80.3c0.3-2.2,0.6-4.3,0.8-6.5c0.3-2.9,0.6-5.7,0.9-8.6c0.1-1.1,0.7-1.6,1.8-1.5
		c3.4,0.4,6.8,0.7,10.3,1c1.3,0.1,1.9,0.6,1.7,2c-0.4,3.1-0.7,6.3-1,9.4c-1.3,0.1-2.5,0.1-3.6,0.3c-3.4,0.5-6,2.3-7.9,5.2
		c-1.1,1.6-1.4,1.7-3,0.6C56.1,81.6,56.1,80.9,56.1,80.3z"/>
	<path fill="#FFFFFF" d="M80.8,93.4c0.3-2.3,0.3-4.6,0.9-6.6c1.6-5.7,6.5-9.5,12.4-9.6c10.2-0.1,20.4-0.1,30.6,0
		c7.8,0.1,13.1,5.9,13.2,14c0.1,11.8,0.1,23.7,0.2,35.5c0,0.6,0,1.1,0,1.8c0.3,0.1,0.5,0.1,0.7,0.2c2.1,0.3,2.7,1.1,2.8,3.1
		c0,2.5,0,5.1,0,7.6c0,0.5,0,0.9,0,1.6c1.3,0,2.5,0,3.6,0c3,0.1,4.4,1.5,4.4,4.4c0,11.7,0,23.5,0,35.2c0,2.7-0.7,3.5-3.9,4.6
		c0,0.9,0,1.8,0,2.7c-0.1,2.1-1.3,3.3-3,3.3c-1.8,0-3-1.2-3.1-3.4c0-0.9,0-1.7,0-2.7c-4.7,0-9.3,0-14.1,0c0,1,0,1.9,0,2.9
		c-0.1,1.9-1.2,3.2-3,3.2c-1.8,0-3-1.2-3.1-3.2c0-0.9,0-1.8,0-2.8c-0.2-0.1-0.5-0.2-0.7-0.3c-2.3-0.5-3.3-1.8-3.3-4.2
		c0-6.2,0-12.5,0-18.7c0-5.5,0-11,0-16.5c0-3.1,1.5-4.6,4.6-4.6c1.1,0,2.2,0,3.5,0c0-2.2,0-4.3,0-6.4c0-0.7,0-1.4,0-2.2
		c0-2.9,0.5-3.5,3.4-4c0-0.4,0-0.8,0-1.2c-0.1-11.9-0.1-23.9-0.2-35.8c0-0.3,0.1-0.6,0-0.8c-0.3-0.5-0.6-1.3-1.1-1.4
		c-0.9-0.2-1.2,0.6-1.2,1.4c0,1.7,0,3.4,0,5c0,8.6,0,17.1,0,25.7c0,1-0.2,1.4-1.2,1.7c-3.5,1.2-5.7,4.3-5.8,8.1c0,1.3,0,2.6,0,3.5
		c-2.3,1.4-4.2,2.7-6.3,3.9c0-2.3,0-4.9,0-7.5c-1,0-1.9,0-3,0c0,0.6,0,1.2,0,1.8c0,17.1,0,34.1,0,51.2c0,4-2,6.7-5.4,7.4
		c-3.8,0.8-7.7-2-8-5.9c-0.1-0.7,0-1.4,0-2.2c0-30.5,0-61,0-91.5c0-1,0.4-2.5-1.2-2.4c-1.5,0-1.1,1.5-1.1,2.4c0,5.7,0,11.3-0.1,17
		c0,3.5-1.8,5.7-5,6.2c-2.1,0.3-3.9-0.6-5.2-2.2C76.1,105.3,70,98,64,90.6c-2-2.5-1.6-5.9,0.7-7.9c2.4-2,5.8-1.7,7.9,0.8
		c2.5,2.9,4.8,5.8,7.2,8.8C80.2,92.6,80.5,93,80.8,93.4z M136.3,135.8c-2.6,2-5.2,1.8-7.7,0.1c0,1.8,0,3.5,0,5.1c2.6,0,5.2,0,7.7,0
		C136.3,139.2,136.3,137.6,136.3,135.8z"/>
	<path fill="#FFFFFF" d="M165.2,131c-1.1,0-1.9,0-2.9,0c0,0.7,0,1.3,0,1.9c0,16.9,0,33.8,0,50.7c0,1.5-0.3,3.2-1,4.5
		c-1.6,3.2-5.7,4.3-8.8,2.6c-1-0.5-1.1-1.2-0.3-1.9c2.9-2.5,3.7-5.8,3.7-9.5c-0.1-11-0.1-22,0-33c0-4.9-1.7-8.5-6.3-10.6
		c-0.4-0.2-0.6-1-0.6-1.5c0-5.7,0-11.5,0-17.2c0-8.4,0-16.8,0-25.1c0-0.4,0.1-0.8,0-1.1c-0.3-0.5-0.7-0.9-1.1-1.3
		c-0.4,0.4-1,0.8-1.1,1.2c-0.4,2.4-0.6,4.7-0.9,7.1c-0.5,4.2-1,8.3-1.7,12.5c0-5.5-0.1-11,0-16.4c0.1-4.9-0.4-9.7-3.3-13.9
		c2.5-1.9,5.2-2.7,8.2-2.7c7.2,0,14.4,0,21.6,0c2.7,0,5.4,0,8,0c7.3,0.1,12.6,5,13.5,12.3c1.6,13.6,3.2,27.2,4.8,40.8
		c0.2,1.8,0,3.5-1.3,5c-0.2,0.2-0.4,0.6-0.4,0.9c0,3,0,6,0,9.2c1.4,0,2.7,0,4,0c2.7,0,4.1,1.4,4.1,4c0,11,0,22,0,33c0,2.5-1.5,4-4,4
		c-4.8,0-9.6,0-14.4,0c-2.5,0-4-1.5-4-3.9c0-11.1,0-22.1,0-33.2c0-2.5,1.5-3.9,4.1-4c1.3,0,2.6,0,4,0c0-2.8,0-5.4,0-8.1
		c0-0.3-0.3-0.7-0.6-0.8c-1.5-1-2.4-2.5-2.6-4.3c-0.9-7.5-1.7-15-2.6-22.5c-0.7-5.9-1.4-11.9-2.1-17.8c-0.1-0.8-0.2-1.7-1.4-1.6
		c-1.1,0.1-1.1,1-1.1,1.8c0,15.7,0,31.4,0.1,47.1c0,14.8,0.1,29.7,0,44.5c0,1.5-0.3,3.1-0.9,4.4c-1.2,2.7-4.3,4-7.1,3.4
		c-3-0.6-5.2-3-5.4-6.1c0-0.7,0-1.3,0-2c0-16.8,0-33.6,0-50.4C165.2,132.2,165.2,131.7,165.2,131z"/>
	<path fill="#FFFFFF" d="M175.4,61.8c0,6.4-5.3,11.6-11.7,11.6c-6.3,0-11.6-5.3-11.6-11.7c0-6.3,5.4-11.6,11.7-11.6
		C170.1,50.2,175.4,55.5,175.4,61.8z"/>
	<path fill="#FFFFFF" d="M121.1,61.7c0,6.4-5.2,11.6-11.5,11.7c-6.3,0-11.6-5.2-11.7-11.6c-0.1-6.3,5.2-11.6,11.6-11.7
		C115.7,50.1,121,55.3,121.1,61.7z"/>
</g>
</svg>
