<?xml version="1.0" encoding="utf-8"?>
<!-- Generator: Adobe Illustrator 18.0.0, SVG Export Plug-In . SVG Version: 6.00 Build 0)  -->
<!DOCTYPE svg PUBLIC "-//W3C//DTD SVG 1.1//EN" "http://www.w3.org/Graphics/SVG/1.1/DTD/svg11.dtd">
<svg version="1.1" id="Calque_1" xmlns="http://www.w3.org/2000/svg" xmlns:xlink="http://www.w3.org/1999/xlink" x="0px" y="0px"
	 viewBox="0 0 283.5 283.5" enable-background="new 0 0 283.5 283.5" xml:space="preserve">
<g>
	<path fill="#FFFFFF" d="M83.4,175.6c0.7-3.9,3.1-6.6,5.7-9.3c21.9-21.8,43.7-43.7,65.6-65.5c1.3-1.3,1.6-2.5,1.2-4.3
		c-3.8-16.1,5.6-32.4,21.4-37.3c4.9-1.5,10.9-1.8,16-0.6c-0.4,0.4-0.7,0.8-1,1.1c-4.5,4.6-9.1,9.1-13.7,13.6c-1.2,1.2-1.5,2.4-1,3.9
		c1.6,4.6,3.1,9.2,4.6,13.9c0.4,1.4,1.2,2.2,2.6,2.6c4.7,1.5,9.3,3.1,14,4.7c1.5,0.5,2.7,0.2,3.8-0.9c4.5-4.6,9.1-9.1,13.6-13.7
		c0.3-0.3,0.5-0.7,0.8-1.1c0.1,0,0.3,0.1,0.4,0.1c0.2,1.1,0.4,2.2,0.5,3.3c1.6,15.6-8.5,30.1-23.7,33.9c-4.8,1.2-9.8,1.4-14.6,0.1
		c-2-0.5-3.3,0-4.7,1.4c-22.2,22.3-44.5,44.6-66.8,66.9c-2.9,2.9-6.2,4.5-10.4,4.1c-2.4-0.2-4.5-1-6.3-2.5c-2.6-2.3-5.3-4.5-6.9-7.7
		c-0.6-1.2-0.9-2.6-1.3-3.9C83.4,177.6,83.4,176.6,83.4,175.6z"/>
	<path fill="#FFFFFF" d="M201.7,194c-3.9-1-6.5-3.8-9.2-6.5c-8.3-8.4-16.7-16.7-25-25c-0.3-0.3-0.8-0.6-1.1-0.8
		c7.1-7.1,13.9-13.9,21-21c0.2,0.3,0.4,0.8,0.8,1.2c8.6,8.7,17.3,17.4,26,26c2.7,2.7,5.1,5.5,5.6,9.4c0,0.9,0,1.8,0,2.7
		c-0.6,3-1.9,5.5-4,7.7c-2.6,2.7-5.3,5.3-9,6.4C205,194,203.4,194,201.7,194z"/>
	<path fill="#FFFFFF" d="M138.8,109.8c-1.2,1.1-2.3,2.2-3.7,3.5c-0.2-0.3-0.4-0.8-0.7-1.2c-9.9-9.9-19.8-19.8-29.7-29.8
		c-1-1-2.1-1.5-3.5-1.6c-2.7-0.2-5.3-0.5-7.9-0.8c-0.4,0-0.9-0.4-1.1-0.7c-2.4-5.1-4.7-10.2-7-15.5c1.4-1.3,2.7-2.7,4.1-4
		c0.2-0.2,0.7-0.3,1-0.1c4.9,2.2,9.9,4.4,14.8,6.7c0.4,0.2,0.7,0.8,0.8,1.3c0.3,2.4,0.5,4.8,0.6,7.2c0.1,1.7,0.7,3.1,1.9,4.3
		c9.9,9.8,19.7,19.7,29.6,29.5C138.2,109.1,138.4,109.4,138.8,109.8z"/>
	<path fill="#FFFFFF" d="M163.1,140.7c1.1-1,2.1-2.1,3.1-3.1c2.8,2.8,5.6,5.6,8.4,8.4c-1,1-2,2.1-3,3.2
		C168.8,146.3,166,143.5,163.1,140.7z"/>
</g>
</svg>
