<?xml version="1.0" encoding="utf-8"?>
<!-- Generator: Adobe Illustrator 18.0.0, SVG Export Plug-In . SVG Version: 6.00 Build 0)  -->
<!DOCTYPE svg PUBLIC "-//W3C//DTD SVG 1.1//EN" "http://www.w3.org/Graphics/SVG/1.1/DTD/svg11.dtd">
<svg version="1.1" id="Calque_1" xmlns="http://www.w3.org/2000/svg" xmlns:xlink="http://www.w3.org/1999/xlink" x="0px" y="0px"
	 viewBox="0 0 283.5 283.5" enable-background="new 0 0 283.5 283.5" xml:space="preserve">
<g>
	<g>
		<path fill="#FFFFFF" d="M153.7,122.2c0-11.5-9.3-20.9-20.8-21c-11.6,0-20.9,9.4-20.9,21.2c0,11.5,9.4,20.9,20.9,20.9
			C144.4,143.2,153.7,133.8,153.7,122.2z M152.2,157.5c-2.6,1-5.2,2-7.8,3.1c-0.3,0.1-0.6,0.6-0.6,1c-0.1,1.7,0,3.4,0,5.1
			c0,2.9-2,4.9-4.8,4.9c-4,0-7.9,0-11.9,0c-2.9,0-4.8-2-4.8-4.9c0-1.7,0-3.4,0-5.1c0-0.3-0.3-0.8-0.6-0.9c-2.7-1.1-5.4-2.1-8-3.2
			c-1.2,1.2-2.6,2.4-3.9,3.7c-2.2,2.2-5.1,2.3-7.3,0.1c-2.7-2.7-5.4-5.5-8.1-8.2c-2-2.1-2.1-4.9-0.1-7c1.2-1.2,2.4-2.5,3.6-3.7
			c0.4-0.4,0.5-0.7,0.2-1.3c-1-2.4-2-4.8-3-7.2c-0.2-0.6-0.5-0.8-1.1-0.8c-1.6,0-3.3,0-4.9,0c-3,0-5-2-5-5c0-3.9,0-7.9,0-11.8
			c0-3,2.1-5,5.1-5c1.6,0,3.3,0,4.9,0c0.3,0,0.8-0.3,0.9-0.5c0.6-1.4,1-2.8,1.5-4.1c0.6-1.3,1.2-2.7,1.9-4.2
			c-1.3-1.2-2.6-2.5-3.9-3.8c-2.3-2.3-2.3-5.1,0-7.5c2.7-2.7,5.4-5.4,8.1-8.1c2.1-2.1,4.9-2.1,7,0c1.4,1.3,2.7,2.7,4.1,4
			c1.3-0.6,2.6-1.2,3.9-1.8c1.2-0.5,2.5-1,3.8-1.4c0.7-0.2,0.9-0.5,0.9-1.2c0-1.6,0-3.2,0-4.8c0-3.1,2-5.1,5.1-5.1
			c3.8,0,7.6,0,11.5,0c3.1,0,5,2,5,5c0,1.7,0,3.4,0,5c0,0.6,0.2,0.8,0.8,1.1c2.4,1,4.8,2,7.2,3c0.5,0.2,0.8,0.2,1.2-0.2
			c1.2-1.2,2.4-2.5,3.6-3.7c2.1-2,4.8-2,6.9,0c2.8,2.8,5.6,5.6,8.4,8.5c2,2,2,4.8,0,6.9c-1.2,1.2-2.4,2.5-3.6,3.6
			c-0.4,0.4-0.4,0.7-0.2,1.3c1,2.4,2,4.7,2.9,7.1c0.2,0.6,0.4,0.9,1.1,0.8c1.6,0,3.3,0,4.9,0c2.9,0,4.9,1.9,5,4.9c0,4,0,8,0,12
			c0,2.9-2,4.9-5,4.9c-1.6,0-3.2,0-4.8,0c-0.7,0-1,0.2-1.2,0.8c-0.9,2.4-1.9,4.8-2.9,7.1c-0.2,0.6-0.2,0.9,0.2,1.3
			c1.2,1.2,2.4,2.4,3.6,3.7c2,2.1,2,4.9,0,7c-2.7,2.8-5.5,5.5-8.2,8.3c-2.2,2.2-5,2.1-7.2-0.1C154.9,159.9,153.5,158.7,152.2,157.5z
			"/>
		<path fill="#FFFFFF" d="M158,154.6c-9.2-5.8-23-10.5-37.9-10.5c-5.8,1.2-10.4,7.1-10.4,14.2c9.2,5.7,23.1,10.4,38,10.4
			C153.4,167.5,158,161.6,158,154.6z M72.1,133c0.4-0.1,0.8-0.2,1.2-0.3c3.3-0.8,6.8-0.7,10,0.3c2.5,0.7,5.1,1.3,7.6,2
			c2-0.3,4.1-0.6,6.1-0.9c1.9-0.3,3.9-0.5,5.8-0.7c0.9-0.1,1.5-0.3,2-0.6c1.5-0.8,3.1-1.6,4.7-2.4c2.6-1.6,6.2-2.6,10.4-2.6
			c5.6,0,11.2,0,16.8,0c4.9,0,9.3,1,12.8,2.5c2.1,0.8,4.3,1.7,6.4,2.5c0.6,0.3,1.3,0.4,2.2,0.5c4.5,0.5,9.1,1,13.6,1.5
			c0.8,0.1,1.5,0.1,2.3-0.1c2.8-0.7,5.6-1.2,8.4-1.8c3.9-0.9,8.1-1,12.1-0.2c0.4,0.1,0.8,0.1,1.2,0.3c1.9,1.5,3.7,3.1,5.3,4.8
			c1.2,1.2,1.3,2.9,0.4,4.2c-0.5,0.8-1.1,1.6-1.7,2.4c-0.2,0.3-0.2,0.5-0.1,0.8c0.5,1.5,1,2.9,1.5,4.4c0.1,0.3,0.2,0.5,0.6,0.6
			c0.8,0.2,1.6,0.4,2.5,0.5c1.5,0.3,2.4,1.6,2.4,3.3c0,2.5-0.2,4.9-0.4,7.3c-0.1,1.7-1.3,3-2.9,3.2c-0.9,0.2-1.8,0.3-2.7,0.4
			c-0.4,0-0.6,0.2-0.7,0.6c-0.7,1.4-1.4,2.8-2.1,4.2c-0.2,0.3-0.2,0.5,0,0.7c0.5,0.7,0.9,1.5,1.3,2.2c0.7,1.2,0.5,2.8-0.8,3.9
			c-1.8,1.6-3.6,3.1-5.4,4.6c-0.8,0.3-1.6,0.6-2.5,0.7c-3.3,0.5-6.7,0.3-9.9-0.5c-2.6-0.7-5.3-1.3-8-1.9c-4.3,0.5-8.7,1.1-13.1,1.6
			c-0.6,0.1-1.2,0.3-1.6,0.5c-1.9,0.9-3.7,1.7-5.6,2.6c-2.8,1.4-6.6,2.4-10.8,2.4c-6.3,0-12.6,0-18.8,0c-4.2,0-8-1-10.8-2.4
			c-1.9-0.9-3.7-1.7-5.6-2.6c-0.4-0.2-1-0.4-1.5-0.5c-4.4-0.5-8.9-1.1-13.4-1.6c-2.5,0.6-5.2,1.2-7.8,1.9c-1.3,0.3-2.6,0.6-3.9,0.7
			c-3,0.3-5.8-0.6-7.9-3.1c-1.5-1.5-3-3.1-4.5-4.7c-1.1-1.2-1.2-2.7-0.3-3.9c0.5-0.7,1.1-1.4,1.7-2.1c0.2-0.2,0.2-0.4,0.1-0.7
			c-0.6-1.3-1.1-2.7-1.6-4c-0.1-0.3-0.2-0.4-0.6-0.5c-0.8-0.1-1.7-0.2-2.5-0.3c-1.5-0.2-2.6-1.3-2.6-2.9c0-2.2-0.1-4.4,0-6.6
			c0-1.8,1-3,2.5-3.3c0.8-0.2,1.6-0.3,2.5-0.5c0.2,0,0.4-0.2,0.4-0.4c0.3-0.8,0.5-1.7,0.8-2.5c0-0.1,0.1-0.2,0.1-0.4
			c0.3-0.7,0.5-1.4,0.9-2.2c-0.6-0.8-1.2-1.6-1.8-2.4c-1-1.4-0.9-3,0.5-4.4C68.7,135.9,70.4,134.4,72.1,133z"/>
		<path fill="#FFFFFF" d="M162.3,194.2c0-2.5,0-4.9,0-7.3c-18.4,0-36.7,0-55.1,0c0,2.5,0,4.8,0,7.3
			C125.6,194.2,143.9,194.2,162.3,194.2z M134.9,182.8c30.4,0,60.9,0,91.3,0c0.6,0,1.2,0,1.8,0.1c2,0.3,3.3,1.8,3.3,3.8
			c0,1.7,0.1,3.5-0.1,5.2c-0.6,4.6-4.4,8.2-9.3,9.3c-1.2,0.3-2.4,0.4-3.6,0.4c-55.6,0-111.2,0-166.8,0c-4.3,0-8-1.4-10.7-4.8
			c-1.5-1.8-2.2-4-2.2-6.3c0-1.2,0-2.5,0-3.7c0-2.1,1.4-3.6,3.5-3.9c0.6-0.1,1.1-0.1,1.7-0.1C74,182.8,104.4,182.8,134.9,182.8z"/>
		<path fill="#FFFFFF" d="M86.3,137.7c0.4-0.1,0.9-0.1,1.3-0.1c5.3,0,10.6,0,15.9,0c0.1,0,0.3,0,0.4,0c0.1,0.1,0.1,0.1,0.2,0.2
			c-0.3,0.3-0.6,0.7-0.9,1c-1.1,1.2-1.5,2.5-0.6,4.4c-3.3,0-6.5,0-9.7,0c1,6.8,2.1,13.5,3.1,20.3c1,6.7,2,13.5,3.1,20.3
			c12.8,0,25.6,0,38.4,0c12.8,0,25.6,0,38.4,0c0.8-5.4,1.6-10.8,2.5-16.2c0.8-5.4,1.6-10.8,2.5-16.3c0.7,0,1.3,0,2,0
			c2.1,0,3.2-0.9,3.4-2.8c0.1-0.5,0.2-0.8,0.8-0.9c0.3,0,0.5-0.2,0.9-0.3c0,6.9,0,13.7,0,20.5c0,6.8,0,13.7,0,20.6
			c-17.6,0-35.3,0-52.9,0c-8.8,0-17.6,0-26.5,0c-8.8,0-17.7,0-26.5,0c0-0.2,0-0.4,0-0.6c0-7.3,0-14.5,0-21.7c0-7.2,0-14.5,0-21.7
			C81.8,141,83.6,138.5,86.3,137.7z M134.8,159c15.2,0,30.4,0,45.6,0c0.3,0,0.6,0,0.9,0c1,0.2,1.6,0.9,1.6,1.9
			c0,0.9,0.1,1.8-0.1,2.6c-0.3,2.3-2.2,4.1-4.7,4.6c-0.6,0.1-1.2,0.2-1.8,0.2c-27.8,0-55.6,0-83.4,0c-2.1,0-4-0.7-5.4-2.4
			c-0.7-0.9-1.1-2-1.1-3.2c0-0.6,0-1.3,0-1.9c0-1.1,0.7-1.8,1.7-1.9c0.3,0,0.6,0,0.9,0C104.4,159,119.6,159,134.8,159z"/>
		<path fill="#FFFFFF" d="M96.2,86.9c-0.8,0.7-1.6,1.3-2.3,2c-2.7,2.3-4,5.1-2.8,8.8c-7.7,0-15.3,0-23,0c0,13.5,0,27,0,40.5
			s0,27,0,40.5c22.2,0,44.4,0,66.6,0s44.4,0,66.7,0c0-10.8,0-21.6,0-32.4s0-21.7,0-32.5c1.2,0,2.3,0,3.4,0c3.7,0,5.6-1.9,5.5-5.5
			c0-1,0.2-1.6,1.2-1.8c0.5-0.1,0.9-0.4,1.5-0.6c0,12.5,0,25,0,37.5c0,12.5,0,24.9,0,37.4c-26.1,0-52.2,0-78.3,0
			c-13.1,0-26.1,0-39.2,0s-26.1,0-39.2,0c0-0.4,0-0.7,0-1.1c0-13.5,0-27,0-40.5c0-13.5,0-27,0-40.5c0-6,3.5-10.5,9-11.8
			c0.8-0.2,1.6-0.3,2.3-0.3c9.2,0,18.4,0,27.5,0c0.2,0,0.5,0,0.7,0C96,86.7,96.1,86.8,96.2,86.9z"/>
		<path fill="#FFFFFF" d="M129.4,79.9c0.4-0.1,0.8-0.2,1.2-0.2c4.8-0.2,9.7-0.4,14.5-0.6c0.1,0,0.2,0,0.4,0c0.1,0.1,0.1,0.1,0.2,0.2
			c-0.4,0.3-0.7,0.6-1.1,0.9c-1.2,1.1-1.8,2.4-1.1,4.2c-3.6-0.1-7.2-0.3-10.8-0.4c0.4,6.6,0.9,13.2,1.4,19.9c0.3,4.6,0.7,9.2,1,13.8
			c0.2,2.1,0.3,4.3,0.5,6.4c11.9,0.1,23.8,0.3,35.6,0.7c11.8,0.4,23.6,0.9,35.2,1.5c0.2-5.1,0.5-10.2,0.6-15.3
			c0.2-5.1,0.3-10.1,0.5-15.2c0.6,0,1.2,0.1,1.7,0.1c1.9,0.1,2.8-0.7,2.8-2.5c0-0.5,0.1-0.8,0.6-0.8c0.2,0,0.5-0.1,0.8-0.2
			c0.1,6.7,0.2,13.4,0.1,20.1c0,7.9-0.7,15.7-1.8,23.1c-14.2,1.1-28.7,1.8-43.5,1.8c-7.3,0-14.7-0.2-21.9-0.5
			c-7.3-0.3-14.5-0.8-21.6-1.3c0-0.2-0.1-0.4-0.1-0.6c-1-7.9-1.7-16.1-1.7-24.5c0-8,0.4-15.8,1-23.5
			C124.3,83.5,126.4,80.8,129.4,79.9z M174,97.4c0.4-0.4,0.8-0.8,1.2-1.2c0.6-0.6,1.5-0.6,2.1,0c0.8,0.8,1.6,1.6,2.4,2.5
			c0.6,0.6,0.6,1.4,0,2c-0.4,0.4-1,0.8-1.1,1.2c-0.1,0.5,0.4,1,0.6,1.5c0.4,1,0.4,1,1.5,1c0.3,0,0.5,0,0.8,0
			c0.7,0.1,1.2,0.6,1.2,1.2c0,1.3,0,2.5,0,3.8c0,0.7-0.6,1.3-1.3,1.3c-0.5,0-1,0-1.4,0c-0.1,0-0.4,0.1-0.4,0.3
			c-0.3,0.7-0.6,1.5-1,2.4c0.3,0.3,0.8,0.7,1.2,1c0.7,0.7,0.7,1.4,0,2.1c-0.8,0.8-1.5,1.6-2.3,2.3c-0.7,0.7-1.5,0.7-2.2,0
			c-0.3-0.4-0.7-0.7-1-1c-0.8,0.3-1.6,0.6-2.4,1c-0.1,0-0.2,0.2-0.2,0.4c0,0.5,0,1,0,1.4c0,0.8-0.6,1.4-1.4,1.4c-1.1,0-2.3,0-3.4,0
			c-0.8,0-1.4-0.5-1.4-1.4c0-0.5,0-0.9,0-1.4c0-0.3-0.1-0.4-0.4-0.5c-0.6-0.2-1.2-0.5-1.8-0.8c-0.3-0.1-0.4-0.1-0.6,0.1
			c-0.3,0.3-0.6,0.7-1,1c-0.6,0.5-1.4,0.6-1.9,0c-0.9-0.8-1.7-1.7-2.6-2.6c-0.5-0.6-0.5-1.3,0-1.9c0.3-0.3,0.6-0.7,1-1
			c0.2-0.2,0.3-0.4,0.1-0.6c-0.2-0.3-0.3-0.7-0.5-1.1c-0.1-0.3-0.3-0.7-0.4-1.1c-0.5,0-1.1,0-1.6,0c-0.9,0-1.5-0.5-1.5-1.4
			c0-1.2,0-2.4,0-3.6c0-0.8,0.5-1.3,1.4-1.3c0.5,0,0.9,0,1.4,0c0.2,0,0.4-0.2,0.5-0.3c0.3-0.6,0.6-1.3,0.8-2c0-0.1,0-0.3-0.1-0.4
			c-0.3-0.4-0.7-0.7-1-1c-0.6-0.6-0.6-1.4,0-2c0.8-0.8,1.6-1.7,2.4-2.5c0.6-0.6,1.4-0.6,2.1,0c0.4,0.4,0.8,0.8,1.2,1.1
			c0.7-0.3,1.5-0.6,2.2-0.9c0.1-0.1,0.3-0.3,0.3-0.4c0-0.5,0-0.9,0-1.4c0-0.9,0.6-1.5,1.5-1.5c1.1,0,2.2,0,3.3,0
			c0.9,0,1.4,0.6,1.5,1.5c0,0.5-0.2,1.2,0.1,1.6c0.2,0.4,0.9,0.4,1.4,0.7C173.3,97.1,173.7,97.2,174,97.4z"/>
		<path fill="#FFFFFF" d="M202.1,70.6c-3.4,0-6.4,1.3-8.6,3.6c-2.2,2.2-3.6,5.3-3.6,8.7c0,3.4,1.3,6.4,3.5,8.7
			c2.2,2.2,5.2,3.7,8.6,3.7c3.3,0,6.4-1.4,8.6-3.6c2.2-2.2,3.6-5.3,3.6-8.7C214.3,76.2,208.8,70.6,202.1,70.6z M213.3,62.4
			c0.9-0.8,1.7-1.6,2.5-2.3c1.3-1.2,2.9-1.3,4.2,0c1.6,1.6,3.3,3.3,4.9,5c1.1,1.2,1.1,2.7,0,3.9c-0.8,0.8-2,1.6-2.2,2.5
			c-0.2,0.9,0.8,2,1.2,3.1c0.8,2,0.8,2,2.9,2c0.5,0,1.1,0,1.6,0c1.3,0.1,2.3,1.2,2.4,2.5c0,2.5,0.1,5.1,0,7.6c0,1.5-1.2,2.5-2.7,2.6
			c-1,0-1.9,0-2.9,0c-0.3,0-0.7,0.3-0.8,0.5c-0.6,1.5-1.2,3-1.9,4.8c0.7,0.6,1.5,1.3,2.3,2.1c1.3,1.3,1.3,2.9,0,4.2
			c-1.5,1.6-3.1,3.1-4.6,4.6c-1.5,1.4-3,1.4-4.5-0.1c-0.7-0.7-1.4-1.4-2-2.1c-1.7,0.7-3.2,1.3-4.8,1.9c-0.2,0.1-0.4,0.5-0.4,0.7
			c0,1,0,1.9,0,2.9c-0.1,1.7-1.2,2.8-2.9,2.8c-2.3,0-4.6,0-6.9,0c-1.7,0-2.8-1.1-2.8-2.7c0-0.9,0-1.9,0-2.8c0-0.6-0.2-0.9-0.8-1.1
			c-1.2-0.4-2.5-1-3.6-1.5c-0.5-0.3-0.8-0.2-1.2,0.2c-0.6,0.7-1.3,1.3-2,2c-1.2,1.1-2.7,1.1-3.9,0c-1.7-1.7-3.5-3.4-5.1-5.2
			c-1-1.1-1-2.7,0.1-3.8c0.6-0.7,1.3-1.4,2-2c0.4-0.4,0.5-0.7,0.2-1.3c-0.4-0.7-0.7-1.4-1-2.1c-0.3-0.7-0.5-1.4-0.8-2.2
			c-1.1,0-2.2,0-3.2,0c-1.8,0-2.9-1-3-2.8c-0.1-2.4-0.1-4.8,0-7.2c0-1.6,1.1-2.6,2.7-2.7c0.9,0,1.9,0,2.8,0c0.3,0,0.8-0.3,0.9-0.6
			c0.6-1.3,1.1-2.6,1.6-3.9c0.1-0.3,0-0.7-0.2-0.9c-0.6-0.7-1.4-1.4-2-2.1c-1.2-1.3-1.2-2.8,0-4c1.6-1.7,3.2-3.3,4.9-5
			c1.2-1.2,2.9-1.2,4.1,0c0.8,0.8,1.6,1.6,2.4,2.3c1.4-0.6,2.9-1.1,4.3-1.7c0.3-0.1,0.6-0.6,0.6-0.9c0.1-0.9,0-1.9,0-2.8
			c0.1-1.8,1.1-2.9,3-2.9c2.2,0,4.4,0,6.6,0c1.8,0,2.9,1.1,2.9,3c0,1.1-0.3,2.4,0.1,3.1c0.5,0.7,1.8,0.9,2.8,1.3
			C212,61.7,212.6,62,213.3,62.4z"/>
		<path fill="#FFFFFF" d="M188.9,80.8c1.7,0,3.3,0.5,4.6,1.4c0.6,0.4,1.2,0.9,1.6,1.6c1,1.5,1.5,3,1.5,4.6c0,2.2-1.2,4.2-3.1,5.8
			c-1.2,0.9-2.6,1.6-4,1.8c-1.7,0.7-3.6,0-5.2-1c-0.6-1-1.1-2.2-1.5-3.4c-0.3-1-0.4-2-0.4-3c-0.1-2.7,0.8-5,2.1-6.7
			C185.9,81.1,187.3,80.8,188.9,80.8z M194.9,78.3c0.4-0.4,0.8-0.8,1.2-1.2c0.6-0.6,1.5-0.6,2.1,0c0.8,0.8,1.6,1.6,2.4,2.5
			c0.6,0.6,0.6,1.4,0,2c-0.4,0.4-1,0.8-1.1,1.2c-0.1,0.5,0.4,1,0.6,1.5c0.4,1,0.4,1,1.5,1c0.3,0,0.5,0,0.8,0
			c0.7,0.1,1.2,0.6,1.2,1.2c0,1.3,0,2.5,0,3.8c0,0.7-0.6,1.3-1.3,1.3c-0.5,0-1,0-1.4,0c-0.1,0-0.4,0.1-0.4,0.3
			c-0.3,0.7-0.6,1.5-1,2.4c0.3,0.3,0.8,0.7,1.2,1c0.7,0.7,0.7,1.4,0,2.1c-0.8,0.8-1.5,1.6-2.3,2.3c-0.7,0.7-1.5,0.7-2.2,0
			c-0.3-0.4-0.7-0.7-1-1c-0.8,0.3-1.6,0.6-2.4,1c-0.1,0-0.2,0.2-0.2,0.4c0,0.5,0,1,0,1.4c0,0.8-0.6,1.4-1.4,1.4c-1.1,0-2.3,0-3.4,0
			c-0.8,0-1.4-0.5-1.4-1.4c0-0.5,0-0.9,0-1.4c0-0.3-0.1-0.4-0.4-0.5c-0.6-0.2-1.2-0.5-1.8-0.8c-0.3-0.1-0.4-0.1-0.6,0.1
			c-0.3,0.3-0.6,0.7-1,1c-0.6,0.5-1.4,0.6-1.9,0c-0.9-0.8-1.7-1.7-2.6-2.6c-0.5-0.6-0.5-1.3,0-1.9c0.3-0.3,0.6-0.7,1-1
			c0.2-0.2,0.3-0.4,0.1-0.6c-0.2-0.3-0.3-0.7-0.5-1.1c-0.1-0.3-0.3-0.7-0.4-1.1c-0.5,0-1.1,0-1.6,0c-0.9,0-1.5-0.5-1.5-1.4
			c0-1.2,0-2.4,0-3.6c0-0.8,0.5-1.3,1.4-1.3c0.5,0,0.9,0,1.4,0c0.2,0,0.4-0.2,0.5-0.3c0.3-0.6,0.6-1.3,0.8-2c0-0.1,0-0.3-0.1-0.4
			c-0.3-0.4-0.7-0.7-1-1c-0.6-0.6-0.6-1.4,0-2c0.8-0.8,1.6-1.7,2.4-2.5c0.6-0.6,1.4-0.6,2.1,0c0.4,0.4,0.8,0.8,1.2,1.1
			c0.7-0.3,1.5-0.6,2.2-0.9c0.1-0.1,0.3-0.3,0.3-0.4c0-0.5,0-0.9,0-1.4c0-0.9,0.6-1.5,1.5-1.5c1.1,0,2.2,0,3.3,0
			c0.9,0,1.4,0.6,1.5,1.5c0,0.5-0.2,1.2,0.1,1.6c0.2,0.4,0.9,0.4,1.4,0.7C194.2,78,194.5,78.2,194.9,78.3z"/>
		<path fill="#FFFFFF" d="M174.7,97.6c0.2-0.8,0.3-1.4,0.4-2s0.1-1.1,0-1.6c-0.1-1-0.6-1.9-1.3-3.1c0.6,0.1,1.3,0.1,2,0.2
			c0.7,0.1,1.4,0.1,2,0.2c0.3,0,0.6,0.3,0.8,0.5c0.5,1,0.7,1.5,0.6,1.9c-0.1,0.4-0.4,0.8-1.2,1.6c-0.3,0.3-0.7,0.7-0.8,1.1
			C176.8,97.9,175.8,97.8,174.7,97.6z"/>
		<path fill="#FFFFFF" d="M171.9,88.9c0.4,0,0.8,0.1,1.3,0.1c0.1,0,0.2,0,0.3,0c0.4,0,0.7,0.1,1.1,0.1c0.2,0,0.4,0.1,0.5,0.3
			c0.3,0.7,0.5,1.1,0.5,1.6c0,0.2-0.1,0.5-0.2,0.7c-0.1,0.2-0.1,0.4-0.3,0.7c-0.2,0.1-0.4,0.3-0.5,0.4c-0.1,0.3-0.4,0.4-0.6,0.4
			c-0.3,0-0.6-0.1-0.9-0.2c0-0.3,0-0.6,0-0.8c0-0.1,0-0.3,0-0.4c0-0.3-0.1-0.7-0.2-1C172.7,90.2,172.4,89.6,171.9,88.9z"/>
		<path fill="#FFFFFF" d="M169.9,86.6c0.2,0,0.4,0,0.7,0s0.5,0,0.8,0c0.1,0.4,0.2,0.8,0.3,1.2c0.1,0.2,0.1,0.4,0.2,0.6
			c0.1,0.2,0.1,0.4,0.2,0.6c-0.2-0.2-0.4-0.4-0.6-0.6c-0.2-0.2-0.4-0.4-0.5-0.6C170.6,87.3,170.2,87,169.9,86.6z"/>
		<path fill="#FFFFFF" d="M175.7,86.7c0.5,0,1.1,0,1.7,0c0.1,0,0.2,0,0.3,0c0.5,0,1,0,1.5,0c0.1,0,0.2,0.1,0.3,0.1
			c0.6,0.3,1.3,0.9,1.7,1.5c-0.1,0.3-0.2,0.6-0.3,0.9c-0.1,0.3-0.3,0.5-0.4,0.8c-0.4,0-0.9-0.1-1.4-0.3c-0.1,0-0.2-0.1-0.3-0.1
			c-0.4-0.2-0.7-0.3-1-0.6c-0.3-0.2-0.5-0.4-0.7-0.6c-0.3-0.2-0.5-0.5-0.7-0.8C176.1,87.3,175.9,87,175.7,86.7z"/>
		<path fill="#FFFFFF" d="M181.3,86.7c0.9,0,1.8,0,2.6,0c0.2,0,0.4,0,0.5,0c0.8,0,1.6,0,2.4,0c0.2,0,0.4,0.1,0.6,0.1
			c1.2,0.2,2.4,1.1,3.2,2c-0.3,0.4-0.5,0.8-0.9,1.1c-0.3,0.4-0.7,0.6-1,0.9c-0.7,0.1-1.5,0.1-2.3,0c-0.2,0-0.4-0.1-0.5-0.1
			c-0.6-0.2-1.1-0.4-1.6-0.7c-0.4-0.2-0.8-0.5-1.1-0.8c-0.4-0.3-0.7-0.7-1.1-1.1C181.9,87.7,181.6,87.2,181.3,86.7z"/>
		<path fill="#FFFFFF" d="M187,86.7c1.2,0,2.4,0,3.6,0c0.2,0,0.5,0,0.7,0c1.1,0,2.2,0,3.3,0c0.3,0,0.6,0,0.9,0.1
			c1.7,0.2,3.5,1.3,4.6,2.5c-0.4,0.5-0.9,1-1.4,1.4c-0.5,0.4-1.1,0.8-1.6,1c-1,0.3-2,0.4-3.1,0.3c-0.2,0-0.5-0.1-0.8-0.1
			c-0.8-0.2-1.6-0.4-2.2-0.8c-0.6-0.3-1.1-0.6-1.5-1c-0.5-0.4-1-0.9-1.4-1.5C187.7,88,187.3,87.4,187,86.7z"/>
		<path fill="#FFFFFF" d="M192.6,86.7c1.9,0,3.7,0,5.5,0s3.6,0,5.4,0.1c2.3,0.1,4.6,1.5,6,3.1c-1.2,1.3-2.6,2.3-4.1,2.8
			c-1.5,0.6-3.2,0.7-4.9,0.4c-1.9-0.3-3.5-1-4.8-2.1c-0.7-0.5-1.2-1.2-1.8-1.9S193,87.6,192.6,86.7z"/>
	</g>
</g>
<g>
	<path fill="#FFFFFF" d="M142.7,145.1c-0.2,0.1-0.5,0.2-0.7,0.3c0,0-0.1,0.1-0.1,0.1c0,0.2,0,0.3,0,0.5c0,0.3-0.2,0.5-0.5,0.5
		c-0.4,0-0.8,0-1.1,0c-0.3,0-0.5-0.2-0.5-0.5c0-0.2,0-0.3,0-0.5c0,0,0-0.1-0.1-0.1c-0.3-0.1-0.5-0.2-0.8-0.3
		c-0.1,0.1-0.2,0.2-0.4,0.4c-0.2,0.2-0.5,0.2-0.7,0c-0.3-0.3-0.5-0.5-0.8-0.8c-0.2-0.2-0.2-0.5,0-0.7c0.1-0.1,0.2-0.2,0.3-0.3
		c0,0,0-0.1,0-0.1c-0.1-0.2-0.2-0.5-0.3-0.7c0-0.1,0-0.1-0.1-0.1c-0.2,0-0.3,0-0.5,0c-0.3,0-0.5-0.2-0.5-0.5c0-0.4,0-0.7,0-1.1
		c0-0.3,0.2-0.5,0.5-0.5c0.2,0,0.3,0,0.5,0c0,0,0.1,0,0.1,0c0.1-0.1,0.1-0.3,0.1-0.4c0.1-0.1,0.1-0.3,0.2-0.4
		c-0.1-0.1-0.2-0.2-0.4-0.4c-0.2-0.2-0.2-0.5,0-0.7c0.3-0.3,0.5-0.5,0.8-0.8c0.2-0.2,0.5-0.2,0.7,0c0.1,0.1,0.3,0.3,0.4,0.4
		c0.1-0.1,0.2-0.1,0.4-0.2c0.1-0.1,0.2-0.1,0.4-0.1c0.1,0,0.1-0.1,0.1-0.1c0-0.2,0-0.3,0-0.5c0-0.3,0.2-0.5,0.5-0.5
		c0.4,0,0.7,0,1.1,0c0.3,0,0.5,0.2,0.5,0.5c0,0.2,0,0.3,0,0.5c0,0.1,0,0.1,0.1,0.1c0.2,0.1,0.5,0.2,0.7,0.3c0.1,0,0.1,0,0.1,0
		c0.1-0.1,0.2-0.2,0.3-0.3c0.2-0.2,0.5-0.2,0.7,0c0.3,0.3,0.5,0.5,0.8,0.8c0.2,0.2,0.2,0.5,0,0.7c-0.1,0.1-0.2,0.2-0.3,0.3
		c0,0,0,0.1,0,0.1c0.1,0.2,0.2,0.4,0.3,0.7c0,0.1,0,0.1,0.1,0.1c0.2,0,0.3,0,0.5,0c0.3,0,0.5,0.2,0.5,0.5c0,0.4,0,0.8,0,1.1
		c0,0.3-0.2,0.5-0.5,0.5c-0.2,0-0.3,0-0.5,0c-0.1,0-0.1,0-0.1,0.1c-0.1,0.2-0.2,0.5-0.3,0.7c0,0.1,0,0.1,0,0.1
		c0.1,0.1,0.2,0.2,0.3,0.3c0.2,0.2,0.2,0.5,0,0.7c-0.3,0.3-0.5,0.5-0.8,0.8c-0.2,0.2-0.5,0.2-0.7,0
		C143,145.3,142.9,145.2,142.7,145.1z M142.9,141.7c0-1.1-0.9-2-2-2c-1.1,0-2,0.9-2,2c0,1.1,0.9,2,2,2
		C142,143.7,142.9,142.8,142.9,141.7z"/>
	<path fill="#FFFFFF" d="M141.1,147.5c2.9,0,5.8,0,8.7,0c0.1,0,0.1,0,0.2,0c0.2,0,0.3,0.2,0.3,0.4c0,0.2,0,0.3,0,0.5
		c-0.1,0.4-0.4,0.8-0.9,0.9c-0.1,0-0.2,0-0.3,0c-5.3,0-10.6,0-15.9,0c-0.4,0-0.8-0.1-1-0.5c-0.1-0.2-0.2-0.4-0.2-0.6
		c0-0.1,0-0.2,0-0.4c0-0.2,0.1-0.3,0.3-0.4c0.1,0,0.1,0,0.2,0C135.3,147.5,138.2,147.5,141.1,147.5z M143.7,148.6c0-0.2,0-0.5,0-0.7
		c-1.7,0-3.5,0-5.2,0c0,0.2,0,0.5,0,0.7C140.2,148.6,142,148.6,143.7,148.6z"/>
	<path fill="#FFFFFF" d="M137.4,138.4c-0.1,0.1-0.1,0.1-0.2,0.2c-0.3,0.2-0.4,0.5-0.3,0.8c-0.7,0-1.5,0-2.2,0c0,2.6,0,5.1,0,7.7
		c4.2,0,8.4,0,12.7,0c0-2.1,0-4.1,0-6.2c0.1,0,0.2,0,0.3,0c0.3,0,0.5-0.2,0.5-0.5c0-0.1,0-0.2,0.1-0.2c0,0,0.1,0,0.1-0.1
		c0,2.4,0,4.7,0,7.1c-5,0-9.9,0-14.9,0c0,0,0-0.1,0-0.1c0-2.6,0-5.1,0-7.7c0-0.6,0.3-1,0.9-1.1c0.1,0,0.1,0,0.2,0
		C135.6,138.4,136.4,138.4,137.4,138.4C137.3,138.4,137.4,138.4,137.4,138.4C137.4,138.4,137.4,138.4,137.4,138.4z"/>
	<path fill="#FFFFFF" d="M148.5,136.1c0.1-0.1,0.2-0.1,0.2-0.2c0.1-0.1,0.3-0.1,0.4,0c0.2,0.2,0.3,0.3,0.5,0.5
		c0.1,0.1,0.1,0.3,0,0.4c-0.1,0.1-0.2,0.1-0.2,0.2c0,0.1,0.1,0.2,0.1,0.3c0.1,0.2,0.1,0.2,0.3,0.2c0.1,0,0.1,0,0.2,0
		c0.1,0,0.2,0.1,0.2,0.2c0,0.2,0,0.5,0,0.7c0,0.1-0.1,0.2-0.3,0.2c-0.1,0-0.2,0-0.3,0c0,0-0.1,0-0.1,0.1c-0.1,0.1-0.1,0.3-0.2,0.5
		c0.1,0.1,0.1,0.1,0.2,0.2c0.1,0.1,0.1,0.3,0,0.4c-0.1,0.1-0.3,0.3-0.4,0.4c-0.1,0.1-0.3,0.1-0.4,0c-0.1-0.1-0.1-0.1-0.2-0.2
		c-0.2,0.1-0.3,0.1-0.5,0.2c0,0,0,0,0,0.1c0,0.1,0,0.2,0,0.3c0,0.2-0.1,0.3-0.3,0.3c-0.2,0-0.4,0-0.7,0c-0.2,0-0.3-0.1-0.3-0.3
		c0-0.1,0-0.2,0-0.3c0-0.1,0-0.1-0.1-0.1c-0.1,0-0.2-0.1-0.3-0.1c0,0-0.1,0-0.1,0c-0.1,0.1-0.1,0.1-0.2,0.2c-0.1,0.1-0.3,0.1-0.4,0
		c-0.2-0.2-0.3-0.3-0.5-0.5c-0.1-0.1-0.1-0.3,0-0.4c0.1-0.1,0.1-0.1,0.2-0.2c0,0,0.1-0.1,0-0.1c0-0.1-0.1-0.1-0.1-0.2
		c0-0.1,0-0.1-0.1-0.2c-0.1,0-0.2,0-0.3,0c-0.2,0-0.3-0.1-0.3-0.3c0-0.2,0-0.5,0-0.7c0-0.2,0.1-0.2,0.3-0.3c0.1,0,0.2,0,0.3,0
		c0,0,0.1,0,0.1-0.1c0.1-0.1,0.1-0.2,0.2-0.4c0,0,0-0.1,0-0.1c-0.1-0.1-0.1-0.1-0.2-0.2c-0.1-0.1-0.1-0.3,0-0.4
		c0.2-0.2,0.3-0.3,0.5-0.5c0.1-0.1,0.3-0.1,0.4,0c0.1,0.1,0.2,0.1,0.2,0.2c0.1-0.1,0.3-0.1,0.4-0.2c0,0,0.1-0.1,0.1-0.1
		c0-0.1,0-0.2,0-0.3c0-0.2,0.1-0.3,0.3-0.3c0.2,0,0.4,0,0.6,0c0.2,0,0.3,0.1,0.3,0.3c0,0.1,0,0.2,0,0.3c0,0.1,0.2,0.1,0.3,0.1
		C148.4,136,148.5,136,148.5,136.1z M147.5,136.8c-0.6,0-1.2,0.5-1.2,1.2c0,0.6,0.5,1.2,1.1,1.2c0.6,0,1.2-0.5,1.2-1.2
		C148.6,137.4,148.1,136.8,147.5,136.8z"/>
	<path fill="#FFFFFF" d="M144.9,139.4c0.1-0.3,0-0.4-0.1-0.6c0.1,0,0.3,0,0.4,0c0,0,0.1,0,0.1,0.1c0.1,0.2,0.1,0.2-0.1,0.3
		c0,0-0.1,0.1-0.1,0.1C145.1,139.4,145,139.4,144.9,139.4z"/>
	<path fill="#FFFFFF" d="M144.4,138.4c0,0,0.1,0,0.1,0c0,0.1,0,0.1,0.1,0.2C144.6,138.5,144.5,138.4,144.4,138.4z"/>
	<path fill="#FFFFFF" d="M146.6,138.4c0.4,0,0.7,0,1,0c0.2,0,0.4,0.1,0.6,0.3c-0.2,0.3-0.5,0.4-0.9,0.3
		C147,138.9,146.7,138.7,146.6,138.4z"/>
</g>
</svg>
