<?xml version="1.0" encoding="utf-8"?>
<!-- Generator: Adobe Illustrator 18.0.0, SVG Export Plug-In . SVG Version: 6.00 Build 0)  -->
<!DOCTYPE svg PUBLIC "-//W3C//DTD SVG 1.1//EN" "http://www.w3.org/Graphics/SVG/1.1/DTD/svg11.dtd">
<svg version="1.1" id="Calque_1" xmlns="http://www.w3.org/2000/svg" xmlns:xlink="http://www.w3.org/1999/xlink" x="0px" y="0px"
	 viewBox="0 0 283.5 283.5" enable-background="new 0 0 283.5 283.5" xml:space="preserve">
<g id="XMLID_488_">
	<path id="XMLID_489_" fill="#FFFFFF" d="M127,72.9h108.7c4.5,0,8.2-3.6,8.2-8.2c0-4.5-3.6-8.2-8.2-8.2H127c-4.5,0-8.2,3.6-8.2,8.2
		C118.8,69.2,122.5,72.9,127,72.9z"/>
	<path id="XMLID_490_" fill="#FFFFFF" d="M235.7,89.2H127c-4.5,0-8.2,3.6-8.2,8.2s3.6,8.2,8.2,8.2h108.7c4.5,0,8.2-3.6,8.2-8.2
		S240.2,89.2,235.7,89.2z"/>
	<path id="XMLID_491_" fill="#FFFFFF" d="M235.7,121.8H127c-4.5,0-8.2,3.6-8.2,8.2s3.6,8.2,8.2,8.2h108.7c4.5,0,8.2-3.6,8.2-8.2
		C243.8,125.4,240.2,121.8,235.7,121.8z"/>
	<path id="XMLID_493_" fill="#FFFFFF" d="M235.7,187H127c-4.5,0-8.2,3.6-8.2,8.2s3.6,8.2,8.2,8.2h108.7c4.5,0,8.2-3.6,8.2-8.2
		S240.2,187,235.7,187z"/>
	<path id="XMLID_494_" fill="#FFFFFF" d="M235.7,154.4H127c-4.5,0-8.2,3.6-8.2,8.2s3.6,8.2,8.2,8.2h108.7c4.5,0,8.2-3.6,8.2-8.2
		C243.8,158,240.2,154.4,235.7,154.4z"/>
	<path id="XMLID_495_" fill="#FFFFFF" d="M81.2,70.4v20.4c0,2.2,1.8,3.9,4.2,3.9c2.4,0,4.2-1.7,4.2-3.9V60.3c0-2.2-1.8-3.8-4-3.8
		c-2,0-3,1.3-3.3,1.8c0,0,0,0,0,0.1l-3.5,5c-0.7,0.7-1.3,1.9-1.3,3.1C77.4,68.6,79.1,70.4,81.2,70.4z"/>
	<path id="XMLID_496_" fill="#FFFFFF" d="M75.6,149.1h16c2.1,0,3.8-1.8,3.8-4.1c0-2.2-1.7-4.1-3.8-4.1H80v-0.1c0-1.2,2.8-3.2,5-4.8
		c4.5-3.2,10-7.1,10-13.9c0-6.5-5-11.3-11.6-11.3c-6.4,0-11.2,4.4-11.2,10.2c0,3.4,2.2,4.6,4.1,4.6c2.7,0,4.3-2,4.3-3.9
		c0-1.2,0.3-2.6,2.7-2.6c3.2,0,3.3,2.9,3.3,3.2c0,2.6-3.4,5-6.6,7.3c-4,2.9-8.6,6.2-8.6,11.2v4.4C71.5,147.5,73.7,149.1,75.6,149.1z
		"/>
	<path id="XMLID_497_" fill="#FFFFFF" d="M94.6,175.7c0-6.7-4-10.6-10.9-10.6c-9.1,0-11.4,6.5-11.4,9.9c0,4,3,4.4,4.2,4.4
		c2.5,0,4.1-1.7,4.1-4.1c0-1,0.3-2,3-2c1.9,0,2.7,0.3,2.7,3c0,2.7-0.6,3-2.9,3c-2.2,0-3.8,1.7-3.8,4c0,2.3,1.7,4,3.9,4
		c3,0,3.6,1.2,3.6,3.2v0.8c0,3.3-1.3,4-3.7,4c-3.3,0-3.6-1.7-3.6-2.2c0-2-1.3-4-4.2-4c-2.6,0-4.1,1.6-4.1,4.3
		c0,4.9,4.2,10.1,11.9,10.1c7.5,0,12-4.5,12-12.1v-0.8c0-3.1-1-5.7-2.9-7.5C93.9,181.1,94.6,178.6,94.6,175.7z"/>
</g>
</svg>
