<?xml version="1.0" encoding="utf-8"?>
<!-- Generator: Adobe Illustrator 18.0.0, SVG Export Plug-In . SVG Version: 6.00 Build 0)  -->
<!DOCTYPE svg PUBLIC "-//W3C//DTD SVG 1.1//EN" "http://www.w3.org/Graphics/SVG/1.1/DTD/svg11.dtd">
<svg version="1.1" id="Calque_1" xmlns="http://www.w3.org/2000/svg" xmlns:xlink="http://www.w3.org/1999/xlink" x="0px" y="0px"
	 viewBox="0 0 283.5 283.5" enable-background="new 0 0 283.5 283.5" xml:space="preserve">
<path fill="#FFFFFF" d="M134.6,21.7l-102.8,81h26v124h153.6v-124h26L134.6,21.7z M117.1,198.1H85.3v-33h31.8V198.1z M117.1,151.8
	H85.3v-33h31.8V151.8z M134.6,77.7c-6.3,0-11.4-5.3-11.4-11.9c0-6.6,5.1-11.9,11.4-11.9c6.3,0,11.4,5.3,11.4,11.9
	C146,72.4,140.9,77.7,134.6,77.7z M183.9,198.1h-31.8v-33h31.8V198.1z M183.9,151.8h-31.8v-33h31.8V151.8z"/>
</svg>
