<?xml version="1.0" encoding="utf-8"?>
<!-- Generator: Adobe Illustrator 18.0.0, SVG Export Plug-In . SVG Version: 6.00 Build 0)  -->
<!DOCTYPE svg PUBLIC "-//W3C//DTD SVG 1.1//EN" "http://www.w3.org/Graphics/SVG/1.1/DTD/svg11.dtd">
<svg version="1.1" id="Calque_1" xmlns="http://www.w3.org/2000/svg" xmlns:xlink="http://www.w3.org/1999/xlink" x="0px" y="0px"
	 viewBox="0 0 283.5 283.5" enable-background="new 0 0 283.5 283.5" xml:space="preserve">
<path fill="#FFFFFF" d="M9.2,153c1.2-4.7,2-9.5,3.6-14.1c4.1-11.6,11.7-20.6,22-27.3c1.2-0.8,1.9-1.4,1.4-3.1
	C32.1,94,35.1,81,46,70.4C56.7,60,69.7,57.3,84.1,61.7c0.2,0.1,0.5,0.1,1,0.2c0.6-1.2,1.3-2.4,1.9-3.7c15.1-28,47-43.8,77.8-38.8
	c32.4,5.3,57.5,29.4,63,61.1c0.8,4.9,2.4,6.8,7.2,8.1c25.1,6.9,43.4,29.3,46.4,56.2c3.5,31.3-16.8,61.7-47.2,70.1
	c-4.8,1.3-9.9,2-14.9,2.1c-16.5,0.3-33,0.1-49.5,0.1c-1.1,0-2.1,0-3.4,0c0-19.7,0-39.3,0-59.2c0.9,0,1.9,0,2.8,0
	c7.7,0,15.4,0,23.2,0c3.1,0,5.4-1,6.6-3.9c1.2-2.8,0.3-5.2-1.8-7.3c-15.6-16-31.2-32.1-46.8-48.1c-3.4-3.5-6.8-3.5-10.1,0
	c-15.6,16-31.1,32-46.6,47.9c-2.1,2.2-3.2,4.5-1.9,7.4c1.3,3,3.8,3.9,6.9,3.9c8.5-0.1,17,0,25.7,0c0,19.7,0,39.3,0,59.2
	c-1.1,0-2.2,0-3.2,0c-18.2,0-36.4-0.2-54.6,0c-20.5,0.2-35.9-9-47.3-25.4c-5.4-7.8-8.6-16.5-9.8-25.9c-0.1-0.7-0.3-1.4-0.5-2
	C9.2,160.1,9.2,156.5,9.2,153z"/>
</svg>
