<?xml version="1.0" encoding="UTF-8"?>
<!DOCTYPE svg PUBLIC "-//W3C//DTD SVG 1.1//EN" "http://www.w3.org/Graphics/SVG/1.1/DTD/svg11.dtd">
<svg xmlns="http://www.w3.org/2000/svg" version="1.1" width="64px" height="64px" style="shape-rendering:geometricPrecision; text-rendering:geometricPrecision; image-rendering:optimizeQuality; fill-rule:evenodd; clip-rule:evenodd" xmlns:xlink="http://www.w3.org/1999/xlink">
<g><path style="opacity:0.865" fill="#fefffe" d="M 28.5,5.5 C 30.5,5.5 32.5,5.5 34.5,5.5C 34.8736,13.1948 35.5402,20.8615 36.5,28.5C 38.924,28.1924 41.2573,28.5258 43.5,29.5C 39.8533,35.14 35.8533,40.4734 31.5,45.5C 27.1467,40.4734 23.1467,35.14 19.5,29.5C 21.7427,28.5258 24.076,28.1924 26.5,28.5C 27.4598,20.8615 28.1264,13.1948 28.5,5.5 Z"/></g>
<g><path style="opacity:1" fill="#fefffe" d="M 7.5,39.5 C 8.83333,39.5 10.1667,39.5 11.5,39.5C 11.5,43.5 11.5,47.5 11.5,51.5C 24.8333,51.5 38.1667,51.5 51.5,51.5C 51.5,47.5 51.5,43.5 51.5,39.5C 52.8333,39.5 54.1667,39.5 55.5,39.5C 55.5,44.8333 55.5,50.1667 55.5,55.5C 39.5,55.5 23.5,55.5 7.5,55.5C 7.5,50.1667 7.5,44.8333 7.5,39.5 Z"/></g>
</svg>
