<?xml version="1.0" encoding="utf-8"?>
<!-- Generator: Adobe Illustrator 18.0.0, SVG Export Plug-In . SVG Version: 6.00 Build 0)  -->
<!DOCTYPE svg PUBLIC "-//W3C//DTD SVG 1.1//EN" "http://www.w3.org/Graphics/SVG/1.1/DTD/svg11.dtd">
<svg version="1.1" id="Calque_1" xmlns="http://www.w3.org/2000/svg" xmlns:xlink="http://www.w3.org/1999/xlink" x="0px" y="0px"
	 viewBox="0 0 283.5 283.5" enable-background="new 0 0 283.5 283.5" xml:space="preserve">
<g>
	<path fill="#404241" d="M82.5,106.2c-1.7,0-2.8,0-4,0c-4.6,0-9.2,0-13.9,0c-1.1,0-2.1,0-3.2,0.1c-4.6,0.8-7.9,4.8-7.5,9.2
		c0.4,4.6,3.9,8,8.7,8c13.9,0.1,27.7,0.1,41.6,0c5.3,0,8.7-3.5,8.7-9.2c0.1-13.5,0.1-26.9,0-40.4c0-5.6-3.6-9.2-8.7-9.3
		c-5.2-0.1-8.9,4.6-8.7,9.3c0.3,5.4,0.1,10.8,0,16.2c0,1,0.5,2.1-0.7,3c-0.9-0.9-1.9-1.8-2.8-2.7C80.8,79.1,69.4,67.7,58,56.4
		c-0.8-0.8-1.6-1.7-2.6-2.5c-5.1-3.9-12.2-1.4-13.8,4.9c-0.9,3.8,0.7,6.6,3.3,9.2c11.5,11.4,23,22.9,34.4,34.4
		C80.4,103.4,81.6,104.2,82.5,106.2z"/>
	<path fill="#404241" d="M82.8,210.6c-1.4,1.5-2.3,2.5-3.3,3.5c-11.2,11.2-22.4,22.4-33.6,33.6c-1,1-2.1,2-2.9,3.2
		c-2.5,3.6-2,8.3,1.1,11.2c3.1,2.9,7.8,3.2,11.3,0.6c1-0.8,1.9-1.8,2.9-2.7c11.4-11.4,22.8-22.8,34.2-34.2c0.9-0.9,1.6-2,3.3-2.5
		c0,1.8,0,3.2,0,4.6c0,5.3-0.1,10.6,0.1,15.9c0.1,4.2,3.4,7.5,7.4,8c4.4,0.5,8.2-2,9.4-6.2c0.4-1.4,0.4-2.9,0.4-4.3
		c0-12.5,0-25.1,0-37.6c0-1.1,0-2.1-0.1-3.2c-0.7-4.5-3.8-7.5-8.4-7.5c-14-0.1-28,0-42,0c-2.1,0-3.9,0.6-5.5,2
		c-2.7,2.3-3.8,5.9-2.6,9.3c1.3,3.8,4.1,5.8,8,6c5.3,0.2,10.6,0,15.8,0.1C79.6,210.5,80.9,210.6,82.8,210.6z"/>
	<path fill="#404241" d="M199.8,223.4c1.7,0.7,2.5,1.8,3.3,2.7c11.4,11.4,22.8,22.8,34.2,34.2c0.9,0.9,1.8,1.9,2.9,2.7
		c3.5,2.5,8.3,2.2,11.2-0.8c3.1-3.1,3.4-8.1,0.7-11.6c-0.7-0.9-1.6-1.7-2.5-2.6c-11.4-11.4-22.8-22.8-34.2-34.2
		c-0.9-0.9-2.1-1.5-2.4-3.3c1.7,0,3.2,0,4.6,0c5.2,0,10.3,0.2,15.4-0.1c4.9-0.2,8.5-4.2,8.4-8.8c-0.1-4.7-3.8-8.4-8.7-8.4
		c-13.9-0.1-27.7,0-41.6,0c-2.5,0-4.6,0.9-6.4,2.7c-1.9,2.1-2.4,4.6-2.4,7.3c0,12.9,0,25.9,0,38.8c0,1.1,0,2.1,0.2,3.1
		c1,4.4,4.8,7.2,9.3,6.8c4.2-0.3,7.5-3.7,7.8-8.1c0.1-1.6,0-3.2,0-4.8C199.8,234,199.8,228.9,199.8,223.4z"/>
	<path fill="#404241" d="M213,106.2c0.7-1.8,1.9-2.6,2.7-3.5c11.3-11.3,22.6-22.6,33.9-33.9c0.8-0.8,1.7-1.7,2.4-2.6
		c2.8-3.6,2.6-8.4-0.5-11.6c-3.1-3.1-7.9-3.5-11.5-0.7c-1,0.8-2,1.8-2.9,2.7c-11.4,11.4-22.8,22.8-34.2,34.1
		c-0.8,0.8-1.4,2.2-3.1,2.1c0-5.9,0-11.5,0-17.2c0-1.1,0-2.1-0.1-3.2c-0.4-4.2-3.6-7.4-7.7-7.8c-4.3-0.4-7.8,1.9-9.2,5.9
		c-0.4,1.3-0.5,2.6-0.5,3.9c0,13.1,0.1,26.1-0.1,39.2c-0.1,5.7,4.1,10,9.8,9.8c13.2-0.3,26.4-0.1,39.6-0.1c0.7,0,1.3,0,2,0
		c5-0.5,8.5-5.3,7.4-10.2c-0.9-4.4-4.2-7-9.2-7.1C225.8,106.1,219.6,106.2,213,106.2z"/>
	<path fill="#404241" d="M175.3,158.5c0.1-15.4-12.1-27.8-27.4-27.9c-15.3-0.1-27.7,12.1-27.9,27.5c-0.2,15.2,12.3,27.8,27.5,27.9
		C162.8,186.1,175.2,173.9,175.3,158.5z"/>
	<path fill="#FFFFFF" d="M82.5,106.2c-0.9-2-2.1-2.8-3.1-3.8C68,90.9,56.5,79.4,45,67.9c-2.6-2.6-4.2-5.4-3.3-9.2
		c1.5-6.2,8.7-8.8,13.8-4.9c0.9,0.7,1.7,1.6,2.6,2.5c11.4,11.4,22.8,22.8,34.2,34.2c0.9,0.9,1.9,1.8,2.8,2.7c1.2-0.9,0.7-2.1,0.7-3
		c0.1-5.4,0.3-10.8,0-16.2c-0.3-4.7,3.5-9.3,8.7-9.3c5.1,0.1,8.7,3.7,8.7,9.3c0.1,13.5,0.1,26.9,0,40.4c0,5.6-3.4,9.1-8.7,9.2
		c-13.9,0.1-27.7,0.1-41.6,0c-4.8,0-8.3-3.4-8.7-8c-0.4-4.4,2.9-8.4,7.5-9.2c1-0.2,2.1-0.1,3.2-0.1c4.6,0,9.2,0,13.9,0
		C79.7,106.2,80.9,106.2,82.5,106.2z"/>
	<path fill="#FFFFFF" d="M82.8,210.6c-1.9-0.1-3.2-0.2-4.5-0.2c-5.3,0-10.6,0.1-15.8-0.1c-3.9-0.1-6.7-2.2-8-6
		c-1.1-3.4-0.1-7,2.6-9.3c1.6-1.3,3.4-2,5.5-2c14,0,28-0.1,42,0c4.5,0,7.7,3,8.4,7.5c0.2,1,0.1,2.1,0.1,3.2c0,12.5,0,25.1,0,37.6
		c0,1.5,0,2.9-0.4,4.3c-1.3,4.2-5,6.6-9.4,6.2c-4.1-0.5-7.3-3.7-7.4-8c-0.2-5.3-0.1-10.6-0.1-15.9c0-1.4,0-2.8,0-4.6
		c-1.7,0.4-2.4,1.6-3.3,2.5c-11.4,11.4-22.8,22.8-34.2,34.2c-0.9,0.9-1.8,1.9-2.9,2.7c-3.4,2.6-8.2,2.3-11.3-0.6
		c-3.1-2.9-3.6-7.6-1.1-11.2c0.8-1.2,1.9-2.2,2.9-3.2c11.2-11.2,22.4-22.4,33.6-33.6C80.5,213.2,81.4,212.1,82.8,210.6z"/>
	<path fill="#FFFFFF" d="M199.8,223.4c0,5.5,0,10.6,0,15.7c0,1.6,0.1,3.2,0,4.8c-0.3,4.4-3.6,7.8-7.8,8.1c-4.6,0.4-8.3-2.4-9.3-6.8
		c-0.2-1-0.2-2.1-0.2-3.1c0-12.9,0-25.9,0-38.8c0-2.7,0.4-5.3,2.4-7.3c1.7-1.8,3.8-2.7,6.4-2.7c13.9,0,27.7,0,41.6,0
		c5,0,8.6,3.7,8.7,8.4c0.1,4.6-3.5,8.6-8.4,8.8c-5.1,0.2-10.3,0.1-15.4,0.1c-1.4,0-2.8,0-4.6,0c0.4,1.8,1.6,2.5,2.4,3.3
		c11.4,11.4,22.8,22.8,34.2,34.2c0.8,0.8,1.7,1.6,2.5,2.6c2.7,3.5,2.4,8.5-0.7,11.6c-3,3-7.8,3.3-11.2,0.8c-1.1-0.8-2-1.8-2.9-2.7
		c-11.4-11.4-22.8-22.8-34.2-34.2C202.2,225.2,201.5,224.1,199.8,223.4z"/>
	<path fill="#FFFFFF" d="M213,106.2c6.7,0,12.9-0.1,19.1,0c5,0.1,8.2,2.7,9.2,7.1c1,4.9-2.4,9.7-7.4,10.2c-0.7,0.1-1.3,0-2,0
		c-13.2,0-26.4-0.2-39.6,0.1c-5.7,0.1-9.9-4.1-9.8-9.8c0.2-13.1,0.1-26.1,0.1-39.2c0-1.3,0-2.6,0.5-3.9c1.4-4,4.9-6.3,9.2-5.9
		c4.1,0.4,7.3,3.6,7.7,7.8c0.1,1,0.1,2.1,0.1,3.2c0,5.7,0,11.3,0,17.2c1.7,0.1,2.3-1.3,3.1-2.1c11.4-11.4,22.8-22.8,34.2-34.1
		c0.9-0.9,1.8-1.9,2.9-2.7c3.6-2.7,8.4-2.4,11.5,0.7c3.1,3.1,3.3,8,0.5,11.6c-0.7,0.9-1.6,1.7-2.4,2.6
		c-11.3,11.3-22.6,22.6-33.9,33.9C214.8,103.6,213.7,104.3,213,106.2z"/>
	<path fill="#FFFFFF" d="M175.3,158.5c-0.1,15.3-12.5,27.6-27.8,27.5c-15.2-0.1-27.7-12.7-27.5-27.9c0.2-15.3,12.6-27.5,27.9-27.5
		C163.2,130.7,175.4,143.2,175.3,158.5z"/>
</g>
</svg>
