<?xml version="1.0" encoding="UTF-8"?>
<!DOCTYPE svg PUBLIC "-//W3C//DTD SVG 1.1//EN" "http://www.w3.org/Graphics/SVG/1.1/DTD/svg11.dtd">
<svg xmlns="http://www.w3.org/2000/svg" version="1.1" width="50px" height="50px" style="shape-rendering:geometricPrecision; text-rendering:geometricPrecision; image-rendering:optimizeQuality; fill-rule:evenodd; clip-rule:evenodd" xmlns:xlink="http://www.w3.org/1999/xlink">
<g><path style="opacity:0.933" fill="#fefffe" d="M 3.5,3.5 C 15.1714,3.33347 26.8381,3.50014 38.5,4C 40.6667,6.16667 42.8333,8.33333 45,10.5C 45.4999,22.1619 45.6665,33.8286 45.5,45.5C 31.5,45.5 17.5,45.5 3.5,45.5C 3.5,31.5 3.5,17.5 3.5,3.5 Z M 6.5,5.5 C 8.16667,5.5 9.83333,5.5 11.5,5.5C 11.5,10.5 11.5,15.5 11.5,20.5C 19.8333,20.5 28.1667,20.5 36.5,20.5C 36.3343,16.1539 36.501,11.8206 37,7.5C 39,9.5 41,11.5 43,13.5C 43.6667,23.1667 43.6667,32.8333 43,42.5C 41.3005,43.4061 39.4672,43.7394 37.5,43.5C 37.5,37.5 37.5,31.5 37.5,25.5C 28.8333,25.5 20.1667,25.5 11.5,25.5C 11.5,31.5 11.5,37.5 11.5,43.5C 9.5328,43.7394 7.69946,43.4061 6,42.5C 5.18817,30.0911 5.35483,17.7577 6.5,5.5 Z M 13.5,5.5 C 20.5,5.5 27.5,5.5 34.5,5.5C 34.6655,9.51383 34.4988,13.5138 34,17.5C 27.3333,18.8333 20.6667,18.8333 14,17.5C 13.5012,13.5138 13.3345,9.51383 13.5,5.5 Z M 14.5,27.5 C 21.175,27.3337 27.8417,27.5004 34.5,28C 35.4714,33.0717 35.8047,38.2384 35.5,43.5C 28.1667,43.5 20.8333,43.5 13.5,43.5C 13.2175,38.0735 13.5509,32.7401 14.5,27.5 Z"/></g>
<g><path style="opacity:0.977" fill="#fefffe" d="M 27.5,7.5 C 29.1667,7.5 30.8333,7.5 32.5,7.5C 32.5,10.5 32.5,13.5 32.5,16.5C 30.8333,16.5 29.1667,16.5 27.5,16.5C 27.5,13.5 27.5,10.5 27.5,7.5 Z"/></g>
<g><path style="opacity:1" fill="#fefffe" d="M 7.5,39.5 C 9.33702,39.6395 9.67036,40.3061 8.5,41.5C 7.70245,41.0431 7.36912,40.3764 7.5,39.5 Z"/></g>
<g><path style="opacity:1" fill="#fefffe" d="M 39.5,39.5 C 41.337,39.6395 41.6704,40.3061 40.5,41.5C 39.7025,41.0431 39.3691,40.3764 39.5,39.5 Z"/></g>
</svg>
