<?xml version="1.0" encoding="utf-8"?>
<!-- Generator: Adobe Illustrator 18.0.0, SVG Export Plug-In . SVG Version: 6.00 Build 0)  -->
<!DOCTYPE svg PUBLIC "-//W3C//DTD SVG 1.1//EN" "http://www.w3.org/Graphics/SVG/1.1/DTD/svg11.dtd">
<svg version="1.1" id="Calque_1" xmlns="http://www.w3.org/2000/svg" xmlns:xlink="http://www.w3.org/1999/xlink" x="0px" y="0px"
	 viewBox="0 0 283.5 283.5" enable-background="new 0 0 283.5 283.5" xml:space="preserve">
<path fill-rule="evenodd" clip-rule="evenodd" fill="#FFFFFF" d="M220.7,90.1h-18.3c0.2-10.8,0.4-25.4,0.2-28.1
	c-1.7-20.4-25.1-37.8-53.2-39.5c-1.8-0.1-3.5-0.2-5.2-0.2c-15.3-0.1-28.9,3.5-40.2,10.7c-11.3,7.2-18.7,17.8-19.8,28.3
	c-0.3,2.5-0.2,17.8-0.2,28.7H65.7c-19.3,0-35,11.4-35,25.4V228c0,14,15.7,25.4,35,25.4h155.1c19.3,0,35-11.4,35-25.4V115.6
	C255.7,101.5,240.1,90.1,220.7,90.1z M162.7,193.8c0.2,1-0.2,1.9-1.1,2.7c-0.9,0.7-2.1,1.1-3.4,1.1l-25.7,0c-1.3,0-2.5-0.4-3.4-1.1
	c-0.9-0.7-1.3-1.7-1.1-2.7l3.6-22.2c-3.8-2.7-6-6.4-6-10.3c0-7.9,8.8-14.4,19.7-14.4c10.8,0,19.7,6.5,19.7,14.4
	c0,3.9-2.2,7.6-6,10.3L162.7,193.8z M177.5,90.1h-68.6c0.2-13.1,1-32,5.1-37c6.3-7.7,16.6-12.2,28.4-12.4c0.4,0,0.8,0,1.2,0
	c11.9,0.1,22.4,4.5,28.6,12.2C176.7,58.3,177.5,76.4,177.5,90.1z"/>
</svg>
