<?xml version="1.0" encoding="utf-8"?>
<!-- Generator: Adobe Illustrator 18.0.0, SVG Export Plug-In . SVG Version: 6.00 Build 0)  -->
<!DOCTYPE svg PUBLIC "-//W3C//DTD SVG 1.1//EN" "http://www.w3.org/Graphics/SVG/1.1/DTD/svg11.dtd">
<svg version="1.1" id="Calque_1" xmlns="http://www.w3.org/2000/svg" xmlns:xlink="http://www.w3.org/1999/xlink" x="0px" y="0px"
	 viewBox="0 0 283.5 283.5" enable-background="new 0 0 283.5 283.5" xml:space="preserve">
<g>
	<path fill="#FFFFFF" d="M266,85.4c-1.4,5.4-3.9,10.1-9.2,12.4c-2.6,1.1-5.5,1.9-8.3,1.9c-56.6,0.1-113.2,0.1-169.8,0.1
		c-7.4,0-13-3.3-16-10.1c-2.8-6.4-1.7-12.5,2.9-17.8c3.5-4,8.2-5.6,13.5-5.6c13.8,0,27.6,0,41.4,0c42.4,0,84.8,0,127.2,0
		c7.4,0,13.1,2.8,16.5,9.6c0.7,1.5,1.1,3.1,1.7,4.7C266,82.2,266,83.8,266,85.4z"/>
	<path fill="#FFFFFF" d="M266,143.8c-1.4,5.4-3.9,10.1-9.2,12.4c-2.6,1.1-5.5,1.9-8.3,1.9c-56.6,0.1-113.2,0.1-169.8,0.1
		c-7.8,0-14.2-4.4-16.4-11.2c-2.4-7-0.2-14.1,5.7-18.8c3.4-2.7,7.4-3.5,11.7-3.5c31.1,0,62.2,0,93.3,0c24.9,0,49.9,0,74.8,0
		c7.4,0,13.1,2.8,16.5,9.6c0.7,1.5,1.1,3.1,1.7,4.7C266,140.6,266,142.2,266,143.8z"/>
	<path fill="#FFFFFF" d="M266,199.8c-1.1,3.5-2.4,6.9-5.1,9.5c-3.6,3.3-7.9,4.7-12.7,4.7c-56.4,0-112.7,0-169.1,0
		c-9.6,0-16.5-5.9-17.6-14.8c-1.1-9.3,5.6-17.6,14.9-18.5c1.3-0.1,2.5-0.1,3.8-0.1c55.2,0,110.3,0.1,165.5-0.1
		c10.6,0,18,4.4,20.3,14.5C266,196.6,266,198.2,266,199.8z"/>
	<path fill="#FFFFFF" d="M21,80.7c1.4-5.5,4.1-9.9,9.4-12.5c8.4-4.2,18.8-0.4,22.6,8.3c3.7,8.5-0.6,18.8-9.2,22.1
		c-9,3.4-19-1.3-21.8-10.2c-0.3-1-0.6-2-0.9-2.9C21,83.8,21,82.2,21,80.7z"/>
	<path fill="#FFFFFF" d="M21,139c1.2-4.2,3-8,6.6-10.8c5.5-4.2,13.6-4.6,19.4-0.7c5.9,3.9,8.7,11.6,6.7,18.2
		c-2.1,7.3-8.4,12.2-15.8,12.3c-6.9,0.1-13.6-4.5-15.9-10.9c-0.4-1.1-0.7-2.3-1.1-3.4C21,142.2,21,140.6,21,139z"/>
	<path fill="#FFFFFF" d="M21,195c1.4-5.6,4.1-10.2,9.5-12.7c6.5-2.9,12.6-2.1,18.1,2.4c4.9,4.1,7,11.1,5,17.3
		c-2.1,6.7-6.7,10.8-13.7,11.7c-8.7,1.1-15.9-3.8-18.3-12.1c-0.2-0.6-0.4-1.2-0.6-1.8C21,198.2,21,196.6,21,195z"/>
</g>
</svg>
