<?xml version="1.0" encoding="utf-8"?>
<!-- Generator: Adobe Illustrator 18.0.0, SVG Export Plug-In . SVG Version: 6.00 Build 0)  -->
<!DOCTYPE svg PUBLIC "-//W3C//DTD SVG 1.1//EN" "http://www.w3.org/Graphics/SVG/1.1/DTD/svg11.dtd">
<svg version="1.1" id="Calque_1" xmlns="http://www.w3.org/2000/svg" xmlns:xlink="http://www.w3.org/1999/xlink" x="0px" y="0px"
	 viewBox="0 0 283.5 283.5" enable-background="new 0 0 283.5 283.5" xml:space="preserve">
<path fill="#FFFFFF" d="M138.7,51c9.1,0,18.3,0,27.4,0c2.8,1.4,4,3.7,4.2,6.8c0.3,4.5,1.1,8.9,1.6,13.4c0.1,1.1,0.5,1.5,1.6,1.9
	c5.2,2.1,10.4,4.2,15.5,6.4c1,0.4,1.6,0.4,2.5-0.3c3.8-3.1,7.7-6.1,11.6-9.2c2.8-2.2,5.7-2,8.1,0.4c5.5,5.5,11,11,16.5,16.5
	c2.5,2.5,2.7,5.4,0.5,8.1c-3,3.9-6.1,7.8-9.2,11.6c-0.7,0.8-0.7,1.4-0.3,2.5c2.2,5.2,4.4,10.4,6.5,15.7c0.4,0.9,0.8,1.3,1.8,1.4
	c4.8,0.5,9.7,1.2,14.5,1.7c3.8,0.4,5.8,2.5,5.8,6.3c0,7.6,0,15.2,0,22.8c0,3.9-1.9,6-5.8,6.5c-4.8,0.5-9.7,1.2-14.5,1.7
	c-1.1,0.1-1.4,0.6-1.7,1.5c-2.1,5.2-4.2,10.4-6.4,15.5c-0.5,1.1-0.4,1.7,0.3,2.6c3.1,3.8,6.1,7.6,9.1,11.5c2.2,2.9,2.1,5.7-0.5,8.3
	c-5.4,5.5-10.9,10.9-16.4,16.4c-2.6,2.6-5.4,2.7-8.3,0.5c-3.9-3-7.8-6.1-11.7-9.2c-0.8-0.6-1.4-0.7-2.3-0.3
	c-5.2,2.2-10.4,4.4-15.7,6.5c-0.9,0.4-1.4,0.7-1.5,1.7c-0.5,4.8-1.2,9.7-1.7,14.5c-0.4,3.8-2.5,5.8-6.3,5.8c-7.7,0-15.3,0-23,0
	c-3.8,0-5.9-2-6.3-5.8c-0.5-4.8-1.2-9.6-1.7-14.3c-0.1-1.2-0.6-1.6-1.7-2c-5.2-2-10.3-4.1-15.4-6.3c-1-0.4-1.7-0.5-2.6,0.2
	c-3.8,3.1-7.6,6.1-11.5,9.1c-3,2.3-5.7,2.2-8.4-0.5c-5.4-5.4-10.8-10.8-16.2-16.3c-2.6-2.6-2.7-5.4-0.5-8.3c3-3.9,6.1-7.8,9.2-11.6
	c0.7-0.9,0.6-1.5,0.2-2.5c-2.2-5.1-4.4-10.3-6.4-15.5c-0.4-1-0.8-1.4-1.9-1.5c-4.5-0.5-8.9-1.2-13.4-1.6c-3.1-0.2-5.4-1.4-6.8-4.2
	c0-9.1,0-18.3,0-27.4c1.4-2.8,3.7-4,6.8-4.2c4.5-0.3,8.9-1.1,13.4-1.6c1.1-0.1,1.5-0.5,1.9-1.6c2-5.2,4.2-10.4,6.4-15.5
	c0.5-1.1,0.4-1.7-0.3-2.6c-3.1-3.8-6.1-7.6-9-11.5c-2.2-2.9-2.1-5.7,0.5-8.3c5.4-5.5,10.9-10.9,16.4-16.4c2.6-2.6,5.4-2.7,8.3-0.5
	c3.8,3,7.7,6,11.5,9.1c0.9,0.7,1.5,0.8,2.6,0.3c5.1-2.2,10.3-4.4,15.5-6.4c1-0.4,1.4-0.8,1.5-1.9c0.5-4.5,1.2-8.9,1.6-13.4
	C134.7,54.7,135.8,52.4,138.7,51z M104.9,146.2c0.3,26.3,21.6,47.4,47.6,47.2c26.3-0.2,47.5-21.7,47.3-47.7
	c-0.2-26.3-21.8-47.6-47.8-47.2C125.7,98.9,104.6,120.3,104.9,146.2z"/>
</svg>
