<?xml version="1.0" encoding="utf-8"?>
<!-- Generator: Adobe Illustrator 18.0.0, SVG Export Plug-In . SVG Version: 6.00 Build 0)  -->
<!DOCTYPE svg PUBLIC "-//W3C//DTD SVG 1.1//EN" "http://www.w3.org/Graphics/SVG/1.1/DTD/svg11.dtd">
<svg version="1.1" id="Calque_1" xmlns="http://www.w3.org/2000/svg" xmlns:xlink="http://www.w3.org/1999/xlink" x="0px" y="0px"
	 viewBox="0 0 283.5 283.5" enable-background="new 0 0 283.5 283.5" xml:space="preserve">
<g>
	<path fill="#FFFFFF" d="M125.6,144.9c-31.6,0-57.3-25.7-57.3-57.3c0-31.6,25.7-57.3,57.3-57.3c31.6,0,57.3,25.7,57.3,57.3
		C183,119.1,157.2,144.9,125.6,144.9z M125.6,53c-19.1,0-34.6,15.5-34.6,34.6s15.5,34.6,34.6,34.6c19.1,0,34.6-15.5,34.6-34.6
		S144.7,53,125.6,53z"/>
	<polygon fill="#FFFFFF" points="238.9,194 153.3,126.5 167.4,108.6 253,176.2 	"/>
	<path fill="#FFFFFF" d="M238.4,196.2c-3.7,0-7.4-1.2-10.6-3.7l-44.4-35.1c-7.4-5.8-8.6-16.6-2.8-23.9c5.8-7.4,16.6-8.6,24-2.8
		l44.4,35.1c7.4,5.8,8.6,16.6,2.8,23.9C248.4,194,243.4,196.2,238.4,196.2z"/>
</g>
</svg>
