<?xml version="1.0" encoding="utf-8"?>
<!-- Generator: Adobe Illustrator 18.0.0, SVG Export Plug-In . SVG Version: 6.00 Build 0)  -->
<!DOCTYPE svg PUBLIC "-//W3C//DTD SVG 1.1//EN" "http://www.w3.org/Graphics/SVG/1.1/DTD/svg11.dtd">
<svg version="1.1" id="Calque_1" xmlns="http://www.w3.org/2000/svg" xmlns:xlink="http://www.w3.org/1999/xlink" x="0px" y="0px"
	 viewBox="0 0 283.5 283.5" enable-background="new 0 0 283.5 283.5" xml:space="preserve">
<path fill="#FFFFFF" d="M69.3,250.7c-0.5-0.2-0.9-0.4-1.4-0.6c-4-1.7-6.5-4.7-6.7-9.1c-0.7-14.8-1.4-29.7-2.1-44.5
	c-1.1-24.2-2.3-48.5-3.4-72.7c-0.2-3.5-0.4-7-0.5-10.5c-0.2-5.7,3.7-9.9,9.5-10.2c0.6,0,1.2,0,1.8,0c43.1,0,86.1,0,129.2,0
	c1.5,0,3,0,4.4,0.4c4.3,1.1,7,5.1,6.8,9.8c-0.9,19.9-1.9,39.7-2.8,59.6c-0.8,17.3-1.6,34.7-2.4,52c-0.2,4.5-0.6,9-0.6,13.6
	c0,6.1-2.5,10.2-8.3,12.2C151.6,250.7,110.5,250.7,69.3,250.7z M141.1,175.3c0-12,0-23.9,0-35.9c0-5.7-4.3-9.9-9.8-9.9
	c-5.5,0-9.8,4.2-9.9,9.9c0,23.9,0,47.8,0,71.7c0,1.6,0.4,3.3,1.1,4.7c2,4.1,6.7,6.1,11.1,5c4.3-1.1,7.4-4.9,7.4-9.4
	C141.1,199.3,141.1,187.3,141.1,175.3z M102.9,175.2c0-11.8,0-23.6,0-35.4c0-6.1-4.2-10.3-9.9-10.3c-5.7,0-9.8,4.3-9.8,10.4
	c0,6.5,0,13.1,0,19.6c0,17.1,0,34.1,0,51.2c0,4.5,2.3,8.1,6.2,9.7c6.6,2.6,13.5-2.1,13.5-9.5C102.9,199,102.9,187.1,102.9,175.2z
	 M159.6,175c0,11.9,0,23.8,0,35.6c0,6.1,4.1,10.3,9.8,10.4c5.7,0,9.8-4.3,9.9-10.4c0-6.6,0-13.2,0-19.8c0-17,0-34,0-51
	c0-3.6-1.3-6.5-4.3-8.6c-3.2-2.2-6.7-2.4-10.1-0.7c-3.5,1.8-5.3,4.8-5.4,8.8C159.6,151.3,159.6,163.1,159.6,175z"/>
<path fill="#FFFFFF" d="M149.5,22.7c1.1,0.3,2.3,0.6,3.4,0.9c12,2.9,21.4,13.3,22.8,25.6c0.2,1.6,0.7,1.9,2.2,1.9
	c7.9-0.1,15.9,0.2,23.8-0.1c8.4-0.3,12.4,5.4,11.9,11.8c-0.3,3.6,0,7.3-0.1,10.9c-0.1,5.9-4.1,10-10,10.3c-0.4,0-0.7,0-1.1,0
	c-47.5,0-95,0-142.5,0c-7.2,0-11.1-4-11.1-11.2c0-3.8,0-7.6,0-11.4c0-0.8,0-1.6,0.2-2.4c1-4.9,4.8-7.9,10.1-8
	c8.3-0.1,16.6-0.1,24.9,0c1.9,0,2.5-0.4,2.7-2.4c1.5-12.5,11.9-23.3,24.5-25.5c0.6-0.1,1.1-0.3,1.7-0.5
	C125.2,22.7,137.3,22.7,149.5,22.7z M106.6,50.8c16.5,0,32.8,0,49.2,0c-0.8-5.1-5-8.4-10.8-8.4c-9.2,0-18.4,0-27.6,0
	c-1,0-1.9,0.1-2.9,0.3C110.5,43.5,107.3,46.7,106.6,50.8z"/>
</svg>
