<?xml version="1.0" encoding="UTF-8"?>
<!DOCTYPE svg PUBLIC "-//W3C//DTD SVG 1.1//EN" "http://www.w3.org/Graphics/SVG/1.1/DTD/svg11.dtd">
<svg xmlns="http://www.w3.org/2000/svg" version="1.1" width="32px" height="32px" style="shape-rendering:geometricPrecision; text-rendering:geometricPrecision; image-rendering:optimizeQuality; fill-rule:evenodd; clip-rule:evenodd" xmlns:xlink="http://www.w3.org/1999/xlink">
<g><path style="opacity:1" fill="#ffffff" d="M 5.5,3.5 C 12.1667,3.5 18.8333,3.5 25.5,3.5C 25.8174,6.57186 25.4841,9.57186 24.5,12.5C 23.5258,10.2573 23.1924,7.92397 23.5,5.5C 18.1667,5.5 12.8333,5.5 7.5,5.5C 7.5,12.1667 7.5,18.8333 7.5,25.5C 12.8333,25.5 18.1667,25.5 23.5,25.5C 23.1924,23.076 23.5258,20.7427 24.5,18.5C 25.4841,21.4281 25.8174,24.4281 25.5,27.5C 18.8333,27.5 12.1667,27.5 5.5,27.5C 5.5,19.5 5.5,11.5 5.5,3.5 Z"/></g>
<g><path style="opacity:0.737" fill="#ffffff" d="M 15.5,10.5 C 16.5,10.5 17.5,10.5 18.5,10.5C 18.67,11.8221 18.3366,12.9887 17.5,14C 30.8333,15 30.8333,16 17.5,17C 18.3366,18.0113 18.67,19.1779 18.5,20.5C 11.027,18.772 10.027,15.4387 15.5,10.5 Z"/></g>
</svg>
