<?xml version="1.0" encoding="utf-8"?>
<!-- Generator: Adobe Illustrator 18.0.0, SVG Export Plug-In . SVG Version: 6.00 Build 0)  -->
<!DOCTYPE svg PUBLIC "-//W3C//DTD SVG 1.1//EN" "http://www.w3.org/Graphics/SVG/1.1/DTD/svg11.dtd">
<svg version="1.1" id="Calque_1" xmlns="http://www.w3.org/2000/svg" xmlns:xlink="http://www.w3.org/1999/xlink" x="0px" y="0px"
	 viewBox="0 0 283.5 283.5" enable-background="new 0 0 283.5 283.5" xml:space="preserve">
<g>
	<path fill="#FFFFFF" d="M30.2,199.1c0.4-0.7,0.9-1.3,1.3-2c5.3-9.2,10.6-18.3,15.9-27.5c0.7-1.2,1.4-1.6,2.7-1.6
		c10.9,0.1,21.8,0.1,32.7,0c1.3,0,2.1,0.4,2.8,1.5c5.4,9.5,11,19,16.4,28.5c0.4,0.7,0.4,2,0,2.7c-5.4,9.6-11,19.1-16.5,28.7
		c-0.6,1.1-1.3,1.4-2.6,1.4c-10.9,0-21.8-0.1-32.7,0c-1.5,0-2.2-0.6-2.9-1.7c-5.2-9.1-10.5-18.2-15.8-27.3c-0.4-0.7-0.9-1.2-1.4-1.9
		C30.2,199.7,30.2,199.4,30.2,199.1z"/>
	<path fill="#FFFFFF" d="M253.3,203c-1.5,4.1-2.5,8.5-4.7,12.3c-7.1,12-21.8,17.2-34.9,12.9c-13.3-4.4-21.9-17.4-20.7-31.3
		c1.2-14,11.8-25.3,25.7-27.3c16.2-2.4,31.7,8.9,34.2,25.1c0.1,0.5,0.3,1,0.4,1.4C253.3,198.4,253.3,200.7,253.3,203z"/>
	<path fill="#FFFFFF" d="M116,35.8c19.2,0,38.3,0,57.6,0c0,19.2,0,38.4,0,57.7c-19.2,0-38.3,0-57.6,0C116,74.3,116,55.1,116,35.8z"
		/>
	<path fill="#FFFFFF" d="M71.4,136.4c0,8.3,0,16.4,0,24.7c-3.4,0-6.6,0-9.9,0c0-11.6,0-23,0-34.8c26.8,0,53.6,0,80.6,0
		c0-7.7,0-15,0-22.6c3.4,0,6.5,0,10,0c0,7.4,0,14.8,0,22.5c25.4,0,50.6,0,75.9,0c0,11.8,0,23.3,0,34.9c-3.3,0-6.4,0-9.9,0
		c0-8.3,0-16.4,0-24.7c-22.1,0-43.9,0-65.9,0c0,8.3,0,16.4,0,24.7c-3.4,0-6.6,0-10,0c0-8.2,0-16.4,0-24.7
		C118.6,136.4,95.2,136.4,71.4,136.4z"/>
	<path fill="#FFFFFF" d="M109.8,226.4c12.8-19.5,25.5-38.7,38.3-58.2c12.8,19.5,25.5,38.7,38.4,58.2
		C160.9,226.4,135.5,226.4,109.8,226.4z"/>
</g>
</svg>
