<?xml version="1.0" encoding="utf-8"?>
<!-- Generator: Adobe Illustrator 18.0.0, SVG Export Plug-In . SVG Version: 6.00 Build 0)  -->
<!DOCTYPE svg PUBLIC "-//W3C//DTD SVG 1.1//EN" "http://www.w3.org/Graphics/SVG/1.1/DTD/svg11.dtd">
<svg version="1.1" id="Calque_1" xmlns="http://www.w3.org/2000/svg" xmlns:xlink="http://www.w3.org/1999/xlink" x="0px" y="0px"
	 viewBox="0 0 283.5 283.5" enable-background="new 0 0 283.5 283.5" xml:space="preserve">
<g>
	<path fill="#FFFFFF" d="M169.1,167l-9-11.5c-1.7-2.1-2.6-4.8-2.6-7.5l0-25.4c-0.2-16.1-11.8-29.4-27.1-32.2c0,0,0-4.5,0-4.5
		c0-3.3-2.7-6-6-6c-3.3,0-6,2.7-6,6c0,0.1,0,4.5,0,4.5c-15.3,2.8-26.9,16.1-27.2,32.1h0l0,25.4c0,2.7-0.9,5.3-2.6,7.5l-9,11.5
		c-1.1,1.7,0.1,3.9,2.1,3.9L167,171C169,171,170.2,168.7,169.1,167"/>
	<path fill="#FFFFFF" d="M124.3,190.4c8.4,0,15.3-6.8,15.3-15.2c0,0,0,0,0,0l-30.5,0l0,0C109.1,183.5,115.9,190.4,124.3,190.4"/>
	<path fill="#FFFFFF" d="M199.9,124.5c-0.9,0.4-1.9,0.5-2.9,0.1c-2-0.7-3-2.9-2.3-4.8c7.1-19.6-3.1-41.4-22.7-48.5
		c-2-0.7-3-2.9-2.3-4.8c0.7-2,2.9-3,4.8-2.3c23.6,8.5,35.8,34.6,27.3,58.1C201.5,123.4,200.7,124.1,199.9,124.5"/>
	<path fill="#FFFFFF" d="M186.2,119.4c-0.9,0.4-1.9,0.5-2.9,0.1c-2-0.7-3-2.9-2.3-4.8c4.3-12-1.9-25.2-13.9-29.5
		c-2-0.7-3-2.9-2.3-4.8c0.7-2,2.9-3,4.8-2.3c15.9,5.7,24.1,23.3,18.4,39.2C187.8,118.2,187.1,119,186.2,119.4"/>
	<path fill="#FFFFFF" d="M172.5,114.6c-0.9,0.4-1.9,0.5-2.9,0.1c-2-0.7-3-2.9-2.3-4.8c1.6-4.5-0.7-9.5-5.2-11.1
		c-2-0.7-3-2.9-2.3-4.8c0.7-2,2.9-3,4.8-2.3c8.4,3.1,12.8,12.4,9.8,20.8C174.1,113.5,173.3,114.2,172.5,114.6"/>
	<path fill="#FFFFFF" d="M49,124.3c0.9,0.4,1.9,0.5,2.9,0.1c2-0.7,3-2.9,2.3-4.8c-7-19.6,3.2-41.3,22.8-48.4c2-0.7,3-2.9,2.3-4.8
		c-0.7-2-2.9-3-4.8-2.3C50.9,72.6,38.6,98.6,47,122.2C47.4,123.2,48.1,123.9,49,124.3"/>
	<path fill="#FFFFFF" d="M62.6,119.2c0.9,0.4,1.9,0.5,2.9,0.1c2-0.7,3-2.9,2.3-4.8c-4.3-12,2-25.2,13.9-29.5c2-0.7,3-2.9,2.3-4.8
		c-0.7-2-2.9-3-4.8-2.3c-15.9,5.7-24.2,23.3-18.5,39.2C61,118.1,61.7,118.8,62.6,119.2"/>
	<path fill="#FFFFFF" d="M76.4,114.5c0.9,0.4,1.9,0.5,2.9,0.1c2-0.7,3-2.9,2.3-4.8c-1.6-4.5,0.7-9.5,5.3-11.1c2-0.7,3-2.9,2.3-4.8
		c-0.7-2-2.9-3-4.8-2.3c-8.4,3-12.9,12.4-9.8,20.8C74.8,113.3,75.5,114.1,76.4,114.5"/>
</g>
</svg>
