<?xml version="1.0" encoding="utf-8"?>
<!-- Generator: Adobe Illustrator 18.0.0, SVG Export Plug-In . SVG Version: 6.00 Build 0)  -->
<!DOCTYPE svg PUBLIC "-//W3C//DTD SVG 1.1//EN" "http://www.w3.org/Graphics/SVG/1.1/DTD/svg11.dtd">
<svg version="1.1" id="Calque_1" xmlns="http://www.w3.org/2000/svg" xmlns:xlink="http://www.w3.org/1999/xlink" x="0px" y="0px"
	 viewBox="0 0 283.5 283.5" enable-background="new 0 0 283.5 283.5" xml:space="preserve">
<path fill="#FFFFFF" d="M32.3,128.6c2.3-3.4,4.4-7.1,7-10.3c15.4-19.1,33.4-35.2,55.5-46.2c45-22.3,89.1-19.8,131.9,6.1
	c19.6,11.8,35.5,27.7,49.3,45.9c1,1.3,1.6,2.9,2.4,4.4c0,1.3,0,2.6,0,3.8c-2.4,3.5-4.5,7.2-7.1,10.4c-17.1,21-37.3,38.3-62.3,49.3
	c-39.6,17.3-78.6,15.5-116.7-4.7c-23.3-12.3-41.9-30-57.7-50.9c-0.9-1.2-1.5-2.8-2.2-4.2C32.3,131.1,32.3,129.9,32.3,128.6z
	 M103.6,130.4c0,28.6,23.1,51.8,51.7,51.9c28.2,0.1,51.8-23.5,51.8-51.7c0-28.6-23-51.7-51.8-51.8
	C127.1,78.6,103.6,102.1,103.6,130.4z"/>
<path fill="#FFFFFF" d="M155,158.4c-15.3-0.1-27.7-12.8-27.5-28.1c0.1-15.3,12.9-27.8,28.3-27.6c15.2,0.2,27.6,12.9,27.4,28.2
	C183,146.1,170.3,158.5,155,158.4z"/>
</svg>
