<?xml version="1.0" encoding="utf-8"?>
<!-- Generator: Adobe Illustrator 18.0.0, SVG Export Plug-In . SVG Version: 6.00 Build 0)  -->
<!DOCTYPE svg PUBLIC "-//W3C//DTD SVG 1.1//EN" "http://www.w3.org/Graphics/SVG/1.1/DTD/svg11.dtd">
<svg version="1.1" id="Calque_1" xmlns="http://www.w3.org/2000/svg" xmlns:xlink="http://www.w3.org/1999/xlink" x="0px" y="0px"
	 viewBox="0 0 283.5 283.5" enable-background="new 0 0 283.5 283.5" xml:space="preserve">
<g>
	<path fill="#FFFFFF" d="M117.9,22.9c38.7,0,77.4,0,116,0c2.2,0.7,4.5,1.1,6.6,2.1c8.2,4.1,12,11,12,20.1c0,41.9,0,83.9,0,125.8
		c0,22.5,0,45,0,67.5c0,7.4-2.4,13.8-8.7,18c-2.9,2-6.6,2.8-9.9,4.2c-38.7,0-77.4,0-116,0c-2.2-0.7-4.5-1.1-6.6-2.1
		c-8.2-4.1-12-11-12-20.1c0-41.9,0-83.9,0-125.8c0-22.5,0-45,0-67.5c0-7.4,2.4-13.8,8.7-18C110.9,25.1,114.6,24.3,117.9,22.9z
		 M210.7,86c0-19.2-15.8-34.8-34.9-34.8c-19.1,0.1-34.7,15.7-34.7,34.7c0,19.2,15.6,34.9,34.8,34.9
		C195.1,120.8,210.8,105.1,210.7,86z M176,148.7c9.1,0,18.3,0,27.4,0c4.8,0,9.6,0.1,14.4,0c4-0.1,6.9-3.2,6.9-7
		c0-3.7-2.9-6.6-6.8-6.9c-0.8,0-1.5,0-2.3,0c-20,0-40.1,0-60.1,0c-7,0-13.9,0-20.9,0c-3.2,0-5.5,1.4-6.8,4.3c-2,4.7,1.5,9.6,7,9.6
		C148.5,148.7,162.3,148.7,176,148.7z M203.4,232.2c11.2,0.3,20.8-8.9,21.2-20.5c0.4-11.2-8.8-20.8-20.4-21.3
		c-11.3-0.4-21,9-21.3,20.6C182.6,222.3,191.9,231.9,203.4,232.2z M127.2,169.4c-0.1,3.8,3,7,6.8,7.1c3.8,0.1,7-3,7.1-6.8
		c0.1-3.8-3-7-6.8-7.1C130.6,162.5,127.3,165.6,127.2,169.4z M169,169.6c0-3.8-3.1-7-6.9-7c-3.8,0-7,3.1-7,6.9c0,3.8,3.1,7,6.9,7
		C165.7,176.6,168.9,173.4,169,169.6z M189.8,162.6c-3.8,0-6.9,3.2-6.9,7c0,3.8,3.2,6.9,7,6.9c3.8,0,6.9-3.2,6.9-7
		C196.8,165.7,193.6,162.6,189.8,162.6z M218.1,162.6c-3.8-0.2-7.1,2.8-7.3,6.6c-0.2,3.8,2.8,7.1,6.6,7.3c3.8,0.2,7.1-2.8,7.3-6.6
		C224.8,166.1,221.8,162.8,218.1,162.6z M134.2,190.5c-3.8,0-7,3.1-7,6.9c0,3.8,3.1,7,6.9,7c3.8,0,7-3.1,7-6.9
		C141.2,193.7,138,190.5,134.2,190.5z M169,197.5c0-3.8-3.1-7-6.9-7c-3.8,0-7,3.1-7,6.9c0,3.8,3.1,7,6.9,7
		C165.7,204.4,168.9,201.3,169,197.5z M134.2,218.3c-3.8,0-7,3.1-7,6.9c0,3.8,3.1,7,6.9,7c3.8,0,7-3.1,7-6.9
		C141.1,221.6,138,218.4,134.2,218.3z M162.1,232.2c3.8-0.1,6.9-3.3,6.8-7.1c-0.1-3.8-3.3-6.9-7.1-6.8c-3.8,0.1-6.9,3.3-6.8,7.1
		C155.1,229.2,158.3,232.3,162.1,232.2z"/>
	<path fill="#FFFFFF" d="M196.8,85.9c0.1,11.3-9.3,20.8-20.7,21c-11.4,0.2-21-9.4-21-20.9c0-11.4,9.4-20.8,20.8-20.9
		C187.2,65.1,196.7,74.5,196.8,85.9z M182.9,86c0-3.8-3.2-6.9-7-6.9c-3.8,0-6.9,3.2-6.9,7c0,3.8,3.2,6.9,7,6.9
		C179.8,92.9,182.9,89.8,182.9,86z"/>
	<path fill="#FFFFFF" d="M210.7,211.4c0,3.8-3.2,6.9-7,6.9c-3.8,0-6.9-3.2-6.9-7c0-3.8,3.2-6.9,7-6.9
		C207.6,204.4,210.8,207.6,210.7,211.4z"/>
</g>
</svg>
